<?xml version="1.0" encoding="UTF-8" standalone="no"?><!DOCTYPE svg PUBLIC "-//W3C//DTD SVG 1.1//EN" "http://www.w3.org/Graphics/SVG/1.1/DTD/svg11.dtd"><svg width="100%" height="100%" viewBox="0 0 1029 1182" version="1.1" xmlns="http://www.w3.org/2000/svg" xmlns:xlink="http://www.w3.org/1999/xlink" xml:space="preserve" xmlns:serif="http://www.serif.com/" style="fill-rule:evenodd;clip-rule:evenodd;stroke-miterlimit:1.5;"><rect id="box.linters" x="0.47" y="0.619" width="1028" height="1181" style="fill:none;"/><clipPath id="_clip1"><rect x="0.47" y="0.619" width="1028" height="1181"/></clipPath><g clip-path="url(#_clip1)"><g><path id="path78" d="M514.47,0.619l-513.793,295.242l-0,590.483l513.793,295.275l513.793,-295.275l-0,-590.483l-513.793,-295.242Z" style="fill:#f4b830;fill-rule:nonzero;"/></g><ellipse cx="494.402" cy="808.798" rx="334.18" ry="19.811" style="fill-opacity:0.14;"/><g><path d="M351.861,415.724l-39.155,-64.375l-32.62,-10.924l-23.73,10.924l5.574,7.484l11.707,21.025l13.052,5.399l37.393,33.909l27.779,-3.442Z" style="fill:#ffd900;"/><path d="M271.623,373.866l61.239,14.04l-7.029,-12.233l-57.686,-16.355l3.476,14.548Z" style="fill-opacity:0.09;"/><path d="M242.486,347.839l77.187,19.814l3.653,-19.6l-47.107,-8.921l-33.733,8.707Z" style="fill:#ff3e38;"/><path d="M313.674,453.079c-0,0 -27.946,143.861 76.202,235.102c32.426,28.407 87.672,38.664 111.172,42.686c10.108,1.73 57.045,16.979 57.045,16.979l31.971,8.078l67.056,-14.199l54.694,-21.825c-0,0 -120.375,-20.268 -182.873,-73.516c-62.498,-53.247 -121.871,-190.035 -121.871,-190.035l-93.396,-3.27Z" style="fill:#cfa36d;"/><path d="M333.77,459.941c0.445,93.512 43.46,184.295 103.359,256.159c-0,-0 -102.292,-62.868 -113.181,-121.101c-10.889,-58.232 -20.922,-119.433 -13.683,-129.119c7.24,-9.686 23.505,-5.939 23.505,-5.939Z" style="fill-opacity:0.31;"/><path d="M379.103,448.579c0,140.171 143.296,231.075 214.876,240.662l-173.724,-240.662l-41.152,-0Z" style="fill-opacity:0.17;"/><path d="M390.712,436.97c-0,140.171 143.296,231.076 214.875,240.662l-173.723,-240.662l-41.152,0Z" style="fill-opacity:0.17;"/><path d="M312.809,354.731l39.845,65.777l-26.728,3.1l-12.371,33.407l91.84,-1.008c0,0 41.559,151.941 140.622,201.186c99.062,49.244 157.556,62.068 157.556,62.068l36.465,-21.868l-178.995,-175.984l-34.865,-57.482l-20.999,-7.92l-14.171,-2.928l-44.497,-63.848l-76.954,-43.72l-56.748,9.22Z" style="fill:#7c554b;"/><path d="M611.206,563.548l-204.261,131.377l48.208,28.048l195.27,-117.656l-39.217,-41.769Z" style="fill-opacity:0.36;"/><path d="M631.313,592.016l-205.263,114.92l34.998,17.526l192.757,-115.823l-22.492,-16.623Z" style="fill-opacity:0.61;"/><path d="M470.017,451.187l-145.702,-23.667l-8.145,26.325l49.449,1.929l104.398,-4.587Z" style="fill:#451a0f;fill-opacity:0.49;"/><path d="M463.298,442.688l-97.435,-98.715l52.944,89.504l32.308,8.05l12.183,1.161Z" style="fill:#451a0f;fill-opacity:0.49;"/><path d="M423.947,458.728c19.469,103.208 76.674,160.868 140.336,211.481c0,-0 -91.306,-62.326 -120.711,-112.763c-29.406,-50.438 -41.069,-97.793 -41.069,-97.793l21.444,-0.925Z" style="fill:#fff;"/><path d="M524.566,454.19l123.429,225.22l9.271,1.391l-132.7,-226.611Z" style="fill:#fff;"/><path d="M520.276,459.941l-15.579,-2.903l151.248,242.589l1.321,-4.391l-136.99,-235.295Z" style="fill:#fff;"/><path d="M578.763,535.602l147.464,164.025l-59.795,5.401l-100.011,-180.77l12.342,11.344Z" style="fill-opacity:0.37;"/><path d="M392.122,689.948c-52.205,-44.677 -82.403,-108.128 -82.403,-182.16c-0,-32.322 6.311,-63.181 17.766,-91.412" style="fill:none;stroke:#000;stroke-width:10.42px;"/><path d="M622.387,692.858c-110.423,-32.598 -195.289,-125.03 -216.992,-239.685" style="fill:none;stroke:#000;stroke-width:10.42px;"/><path d="M662.61,699.627c-110.423,-32.598 -195.289,-125.03 -216.992,-239.686" style="fill:none;stroke:#000;stroke-width:10.42px;"/><path d="M448.967,718.106c-76.598,-63.133 -119.962,-160.906 -112.349,-262.586" style="fill:none;stroke:#000;stroke-width:10.42px;"/><path d="M323.286,419.436l44.913,-0" style="fill:none;stroke:#000;stroke-width:10.42px;"/><path d="M286.697,381.092l38.402,38.402" style="fill:none;stroke:#000;stroke-width:10.42px;"/><path d="M309.796,346.309l42.065,72.857" style="fill:none;stroke:#000;stroke-width:10.42px;"/><path d="M447.407,384.772l39.155,67.817" style="fill:none;stroke:#000;stroke-width:10.42px;"/><path d="M231.214,348.256l92.868,24.884" style="fill:none;stroke:#000;stroke-width:10.42px;"/><path d="M317.604,356.792l57.269,-15.345" style="fill:none;stroke:#000;stroke-width:10.42px;"/><path d="M271.765,335.815l61.175,16.391" style="fill:none;stroke:#000;stroke-width:10.42px;"/><path d="M229.016,347.888l44.875,-12.024" style="fill:none;stroke:#000;stroke-width:10.42px;"/><path d="M260.203,355.11l14.483,25.086" style="fill:none;stroke:#000;stroke-width:10.42px;"/><path d="M272.208,377.901l16.471,4.413" style="fill:none;stroke:#000;stroke-width:10.42px;"/><path d="M366.734,419.276l161.276,43.214" style="fill:none;stroke:#000;stroke-width:10.42px;"/><path d="M369.937,341.318l79.286,45.776" style="fill:none;stroke:#000;stroke-width:10.42px;"/><path d="M369.937,343.973l107.214,107.214" style="fill:none;stroke:#000;stroke-width:10.42px;"/><path d="M525.24,459.941l142.082,246.094" style="fill:none;stroke:#000;stroke-width:10.42px;"/><path d="M554.307,510.505l203.797,203.796" style="fill:none;stroke:#000;stroke-width:10.42px;"/><path d="M390.37,688.6l50.283,29.031" style="fill:none;stroke:#000;stroke-width:10.42px;"/><path d="M435.853,714.603l154.211,41.321" style="fill:none;stroke:#000;stroke-width:10.42px;"/><path d="M413.96,682.4l171.13,0" style="fill:none;stroke:#000;stroke-width:10.42px;"/><path d="M391.814,660.111l36.076,-134.638" style="fill:none;stroke:#000;stroke-width:10.42px;"/><path d="M317.998,456.007l187.181,0" style="fill:none;stroke:#000;stroke-width:10.42px;"/></g><g><path d="M421.54,697.572l-0,88.103" style="fill:none;stroke:#000;stroke-width:8.33px;"/><path d="M782.906,565.297l54.481,-52.047l34.337,-2.109l20.094,16.694l-7.321,5.786l-16.75,17.278l-14.005,1.838l-44.895,23.075l-25.941,-10.515Z" style="fill:#ffd900;"/><path d="M871.243,545.633l-62.786,-2.288l9.955,-9.998l59.954,-0.866l-7.123,13.152Z" style="fill-opacity:0.09;"/><path d="M904.404,527.886l-77.966,-0.691l4.102,-15.112l45.253,-1.19l28.611,16.993Z" style="fill:#ff3e38;"/><path d="M810.123,611.264c-2.343,19.748 -27.433,153.542 -110.061,193.393c-19.015,9.172 -109.658,0.203 -134.295,0.48c-10.254,0.116 -130.96,-2.827 -130.96,-2.827l-63.274,1.492l-65.292,-2.574l-8.789,3.276l-146.498,-40.975l144.906,1.55c-0,-0 182.15,12.445 256.3,-22.812c74.15,-35.258 166.903,-152.017 166.903,-152.017l91.06,21.014Z" style="fill:#cfa36d;"/><path d="M483.979,767.31l-71.193,38.426l-98.49,-2.83l27.32,-0.103l142.363,-35.493Z" style="fill:#190e00;fill-opacity:0.24;"/><path d="M788.936,612.691c-20.352,74.535 -68.295,139.75 -127.467,190.572c-7.923,6.805 29.619,5.94 36.413,2.611c30.9,-15.142 53.301,-34.535 65.586,-60.185c25.589,-53.43 51.12,-109.949 46.634,-121.179c-4.485,-11.23 -21.166,-11.819 -21.166,-11.819Z" style="fill-opacity:0.31;"/><path d="M446.908,766.812l-192.311,25.855l59.078,11.278l13.443,-0.117l119.79,-37.016Z" style="fill:#fff;"/><path d="M748.088,589.982c-36.279,135.395 -198.22,186.114 -269.842,176.848l230.092,-187.499l39.75,10.651Z" style="fill-opacity:0.17;"/><path d="M739.879,575.765c-36.279,135.394 -198.22,186.114 -269.841,176.847l230.092,-187.498l39.749,10.651Z" style="fill-opacity:0.17;"/><path d="M836.412,516.49l-55.511,53.224l25.015,9.911l3.303,35.471l-88.45,-24.743c0,-0 -79.468,136.007 -187.901,157.934c-108.432,21.928 -168.251,19.175 -168.251,19.175l-78.87,-2.648l267.75,-151.573l48.555,-46.499l22.333,-2.215l14.447,0.839l59.505,-50.156l85.647,-22.313l52.428,23.593Z" style="fill:#7c554b;"/><path d="M481.453,657.072l-153.026,102.893l-35.955,4.206l188.981,-107.099Z" style="fill:#fff;"/><path d="M659.597,568.971l146.862,14.85l1.055,27.536l-48.264,-10.935l-99.653,-31.451Z" style="fill:#451a0f;fill-opacity:0.49;"/><path d="M668.287,562.5l119.664,-70.132l-74.305,72.75l-33.291,-0.586l-12.068,-2.032Z" style="fill:#451a0f;fill-opacity:0.49;"/><path d="M702.146,588.179c-45.518,94.652 -115.698,135.542 -190.29,167.953c-0,0 104.326,-36.57 145.783,-77.678c41.458,-41.109 64.98,-83.831 64.98,-83.831l-20.473,-6.444Z" style="fill:#fff;"/><path d="M606.129,557.754l-177.515,185.599l-9.314,-1.055l186.829,-184.544Z" style="fill:#fff;"/><path d="M608.785,564.419l15.799,1.228l-208.881,195.177l-0.139,-4.583l193.221,-191.822Z" style="fill:#fff;"/><path d="M532.708,622.365l-178.199,135.653l49.667,5.309l143.39,-148.726l-14.858,7.764Z" style="fill-opacity:0.37;"/><path d="M700.062,804.657c48.182,-31.166 83.464,-78.853 99.721,-139.525c8.366,-31.22 10.257,-62.662 6.499,-92.895" style="fill:none;stroke:#000;stroke-width:10.42px;"/><path d="M449.869,762.972c115.098,-2.909 220.996,-70.226 271.634,-175.357" style="fill:none;stroke:#000;stroke-width:10.42px;"/><path d="M409.265,759.099c115.097,-2.908 220.995,-70.225 271.633,-175.357" style="fill:none;stroke:#000;stroke-width:10.42px;"/><path d="M661.034,803.434c64.593,-45.571 111.043,-115.173 126.295,-195.752" style="fill:none;stroke:#000;stroke-width:10.42px;"/><path d="M809.546,576.278l-43.383,-11.624" style="fill:none;stroke:#000;stroke-width:10.42px;"/><path d="M854.813,548.711l-47.034,27.155" style="fill:none;stroke:#000;stroke-width:10.42px;"/><path d="M840.874,509.763l-58.859,58.859" style="fill:none;stroke:#000;stroke-width:10.42px;"/><path d="M698.626,510.671l-55.373,55.372" style="fill:none;stroke:#000;stroke-width:10.42px;"/><path d="M915.393,531.236l-94.633,0.118" style="fill:none;stroke:#000;stroke-width:10.42px;"/><path d="M831.248,517.24l-51.346,-29.644" style="fill:none;stroke:#000;stroke-width:10.42px;"/><path d="M880.954,508.841l-63.333,0" style="fill:none;stroke:#000;stroke-width:10.42px;"/><path d="M917.507,531.084l-38.639,-22.243" style="fill:none;stroke:#000;stroke-width:10.42px;"/><path d="M887.128,530.472l-18.881,18.907" style="fill:none;stroke:#000;stroke-width:10.42px;"/><path d="M871.613,549.379l-18.951,-0" style="fill:none;stroke:#000;stroke-width:10.42px;"/><path d="M767.62,564.88l-166.965,-0" style="fill:none;stroke:#000;stroke-width:10.42px;"/><path d="M784.703,488.749l-88.432,23.695" style="fill:none;stroke:#000;stroke-width:10.42px;"/><path d="M784.016,491.313l-131.31,75.811" style="fill:none;stroke:#000;stroke-width:10.42px;"/><path d="M603.99,563.135l-200.935,200.934" style="fill:none;stroke:#000;stroke-width:10.42px;"/><path d="M562.826,604.452l-274.648,158.568" style="fill:none;stroke:#000;stroke-width:10.42px;"/><path d="M453.177,762.891l-311.008,-0.107" style="fill:none;stroke:#000;stroke-width:10.42px;"/><path d="M703.336,803.444l-411.391,0.642" style="fill:none;stroke:#000;stroke-width:10.42px;"/><path d="M512.706,754.456l-185.691,49.755" style="fill:none;stroke:#000;stroke-width:10.42px;"/><path d="M489.925,757.585l-27.23,47.165" style="fill:none;stroke:#000;stroke-width:10.42px;"/><path d="M642.368,803.724l-153.766,-41.201" style="fill:none;stroke:#000;stroke-width:10.42px;"/><path d="M681.062,791.016l-0,-139.386" style="fill:none;stroke:#000;stroke-width:10.42px;"/><path d="M297.452,804.504l-152.769,-40.934" style="fill:none;stroke:#000;stroke-width:10.42px;"/><path d="M805.188,612.973l-180.803,-48.446" style="fill:none;stroke:#000;stroke-width:10.42px;"/></g></g></svg>