<?xml version="1.0" encoding="UTF-8" standalone="no"?><!DOCTYPE svg PUBLIC "-//W3C//DTD SVG 1.1//EN" "http://www.w3.org/Graphics/SVG/1.1/DTD/svg11.dtd"><svg width="100%" height="100%" viewBox="0 0 1029 1182" version="1.1" xmlns="http://www.w3.org/2000/svg" xmlns:xlink="http://www.w3.org/1999/xlink" xml:space="preserve" xmlns:serif="http://www.serif.com/" style="fill-rule:evenodd;clip-rule:evenodd;stroke-miterlimit:1.5;"><rect id="reactable.extras" x="0.764" y="0.348" width="1028" height="1181.1" style="fill:none;"/><clipPath id="_clip1"><rect x="0.764" y="0.348" width="1028" height="1181.1"/></clipPath><g clip-path="url(#_clip1)"><rect x="0.764" y="945.23" width="1182.39" height="236.22" style="fill:none;stroke:#00d8ff;stroke-opacity:0;stroke-width:1.46px;"/><g><g><path id="path78" d="M514.601,0.348l-513.837,295.268l-0,590.535l513.837,295.3l513.838,-295.3l0,-590.535l-513.838,-295.268Z" style="fill:#f4b830;fill-rule:nonzero;"/></g><g><ellipse cx="530.78" cy="636.119" rx="304.54" ry="47.994" style="fill-opacity:0.15;"/><path d="M521.967,409.745l-57.297,-1.245l-17.382,16.932l-156.024,-1.856c-0,-0 -54.025,10.425 -68.12,34.742c-14.095,24.318 -23.491,60.501 -21.137,80.361c2.353,19.86 13.549,59.627 45.889,73.416c32.34,13.789 64.832,14.97 84.023,15.435c19.191,0.464 19.511,0.017 19.511,0.017l107.122,-56.444c0,-0 -2.962,33.574 -40.756,70.16c-37.795,36.587 -107.615,72.622 -146.487,78.91c-38.872,6.288 -61.658,7.559 -61.658,7.559c0,0 15.372,15.293 81.819,5.881c66.446,-9.413 106.792,-31.974 106.792,-31.974c0,-0 -13.361,16.696 -7.957,35.255c5.405,18.558 -0.009,30.066 19.997,43.734c20.005,13.668 51.488,9.722 67.508,-6.631c16.02,-16.353 16.249,-32.651 37.315,-36.098c21.065,-3.447 37.262,-5.979 43.979,-2.789c6.718,3.19 16.095,12.655 16.095,12.655c-0,-0 9.701,-5.112 -1.797,-16.776c-11.498,-11.664 -29.672,-25.475 -43.162,-27.522c-13.49,-2.048 -39.063,-4.459 -44.554,-3.768c-5.491,0.691 9.89,-30.482 25.379,-38.828c15.49,-8.346 68.867,-62.328 68.867,-62.328c-0,0 35.441,43.06 73.186,62.77c37.746,19.71 56.936,21.026 93.009,20.742c36.073,-0.284 47.498,-8.733 65.357,3.812c17.858,12.544 40.58,32.063 36.767,47.425c-3.814,15.362 -0.652,33.432 7.905,24.211c8.558,-9.22 35.887,-40.244 20.315,-61.278c-15.572,-21.034 -17.483,-35.413 -36.284,-38.35c-18.801,-2.937 -58.627,7.532 -94.06,0.819c-35.433,-6.712 -46.351,-11.947 -50.673,-17.107c-4.322,-5.16 27.521,-7.023 27.521,-7.023c-0,-0 107.257,-3.45 123.325,-4.581c17.965,-1.264 73.858,-48.595 57.687,-89.123c-14.603,-36.599 -16.432,-34.763 -16.432,-34.763l-6.581,48.967l-25.165,34.527l-118.637,0l-64.364,-18.488l-86.282,-86.301l-52.457,-32.129l-12.102,-42.928Z" style="fill:#f44530;"/><clipPath id="_clip2"><path d="M521.967,409.745l-57.297,-1.245l-17.382,16.932l-156.024,-1.856c-0,-0 -54.025,10.425 -68.12,34.742c-14.095,24.318 -23.491,60.501 -21.137,80.361c2.353,19.86 13.549,59.627 45.889,73.416c32.34,13.789 64.832,14.97 84.023,15.435c19.191,0.464 19.511,0.017 19.511,0.017l107.122,-56.444c0,-0 -2.962,33.574 -40.756,70.16c-37.795,36.587 -107.615,72.622 -146.487,78.91c-38.872,6.288 -61.658,7.559 -61.658,7.559c0,0 15.372,15.293 81.819,5.881c66.446,-9.413 106.792,-31.974 106.792,-31.974c0,-0 -13.361,16.696 -7.957,35.255c5.405,18.558 -0.009,30.066 19.997,43.734c20.005,13.668 51.488,9.722 67.508,-6.631c16.02,-16.353 16.249,-32.651 37.315,-36.098c21.065,-3.447 37.262,-5.979 43.979,-2.789c6.718,3.19 16.095,12.655 16.095,12.655c-0,-0 9.701,-5.112 -1.797,-16.776c-11.498,-11.664 -29.672,-25.475 -43.162,-27.522c-13.49,-2.048 -39.063,-4.459 -44.554,-3.768c-5.491,0.691 9.89,-30.482 25.379,-38.828c15.49,-8.346 68.867,-62.328 68.867,-62.328c-0,0 35.441,43.06 73.186,62.77c37.746,19.71 56.936,21.026 93.009,20.742c36.073,-0.284 47.498,-8.733 65.357,3.812c17.858,12.544 40.58,32.063 36.767,47.425c-3.814,15.362 -0.652,33.432 7.905,24.211c8.558,-9.22 35.887,-40.244 20.315,-61.278c-15.572,-21.034 -17.483,-35.413 -36.284,-38.35c-18.801,-2.937 -58.627,7.532 -94.06,0.819c-35.433,-6.712 -46.351,-11.947 -50.673,-17.107c-4.322,-5.16 27.521,-7.023 27.521,-7.023c-0,-0 107.257,-3.45 123.325,-4.581c17.965,-1.264 73.858,-48.595 57.687,-89.123c-14.603,-36.599 -16.432,-34.763 -16.432,-34.763l-6.581,48.967l-25.165,34.527l-118.637,0l-64.364,-18.488l-86.282,-86.301l-52.457,-32.129l-12.102,-42.928Z"/></clipPath><g clip-path="url(#_clip2)"><path d="M473.249,644.215c-0,-0 -48.859,78.93 -96.759,95.733c-47.899,16.804 12.736,-21.591 12.736,-21.591c0,-0 9.024,-15.517 14.122,-20.947c5.098,-5.43 35.223,-24.966 35.223,-24.966l34.678,-28.229Z" style="fill-opacity:0.38;"/></g><path d="M829.561,661.357c20.828,-4.367 68.704,68.242 24.986,94.285c-29.886,17.803 7.383,-3.562 13.931,-6.83c6.548,-3.268 18.046,-27.207 9.392,-45.182c-8.654,-17.975 -23.63,-38.376 -23.63,-38.376l-15.782,-9.798l-8.897,5.901Z" style="fill:#fff;"/><path d="M308.174,428.91c-50.549,8.929 -89.073,37.883 -106.528,86.097l19.541,-54.701l56.147,-31.999l30.84,0.603Z" style="fill:#fff;"/><path d="M597.103,563.72c-0,0 49.293,85.519 99.571,85.519c45.132,-0 18.202,-0.182 18.202,-0.182l-84.082,-53.056l-33.691,-32.281Z" style="fill:#fff;"/><path d="M486.482,415.989l-100.912,79.82l76.646,-81.932l24.266,2.112" style="fill:#fff;"/><path d="M547.628,481.502c-0,61.508 -39.456,126.913 -74.621,162.719l52.682,-108.346l11.434,-73.295l13.656,4.356l-3.151,14.566Z" style="fill:#fff;"/><path d="M405.079,424.022l-46.684,69.981l25.533,-3.86l60.603,-64.324l-39.452,-1.797Z" style="fill-opacity:0.22;"/><path d="M423.802,424.318l-47.766,63.372l71.245,-64.357l-23.479,0.985Z" style="fill-opacity:0.23;"/><path d="M562.087,559.532c-0,-0 87.534,108.001 161.825,108.001c74.291,0 102.134,10.037 115.862,33.256c13.728,23.219 1.436,10.46 1.436,10.46l-22.625,-22.026l-42.205,-3.4l-50.878,0.231l-66.141,-19.545l-65.697,-48.871l-31.577,-58.106Z" style="fill-opacity:0.2;"/><path d="M607.135,556.556c0,-0 61.453,68.727 180.868,60.564c119.416,-8.164 112.602,-75.371 112.602,-75.371l6.208,4.413l3.634,10.023l-26.357,52.935l-26.539,22.638l-85,2.744l-78.772,0.416l-28,-10.685l-37.131,-31.335l-21.513,-36.342Z" style="fill-opacity:0.24;"/><path d="M656.714,611.343l154.337,18.388l-109.023,5.06l-22.52,-3.778l-22.794,-19.67Z" style="fill-opacity:0.42;"/><path d="M425.171,745.23c8.631,27.864 46.978,10.29 85.447,-11.089l-13.046,17.145l-16.839,20.235l-23.029,16l-20.297,2.243l-26.913,-10.9l-13.049,-11.845l27.726,-21.789Z" style="fill-opacity:0.27;"/><path d="M549.627,539.233c-0,74.277 -62.063,136.606 -145.233,211.634c-52.589,47.441 92.915,-75.103 92.915,-75.103l58.499,-54.256l-6.181,-82.275Z" style="fill-opacity:0.27;"/><path d="M494.188,444.462c16.769,182.598 -112.579,274.649 -248.954,287.011c0,0 103.714,4.186 151.541,-30.912c47.826,-35.099 112.49,-105.304 123.57,-140.186c11.079,-34.881 12.308,-98.894 12.308,-98.894l-38.465,-17.019Z" style="fill-opacity:0.27;"/><path d="M559.784,575.69l-1.044,40.914l21.856,-17.896l-20.812,-23.018Z" style="fill-opacity:0.34;"/><path d="M562.096,575.66l-2.897,39.399l21.026,-16.351l-18.129,-23.048Z" style="fill-opacity:0.47;"/><path d="M204.329,523.377c25.292,88.642 169.721,81.216 267.64,1.436l-8.046,37.44l-59.775,36.33l-56.104,29.419l-86.425,-5.017l-43.183,-34.811l-20.519,-43.363l6.412,-21.434Z" style="fill-opacity:0.26;"/><path d="M469.421,526.883c0,0 -72.616,82.295 -114.396,94.625c-41.781,12.33 99.728,-49.359 99.728,-49.359l22.764,-37.607l-8.096,-7.659Z" style="fill-opacity:0.37;"/><path d="M179.261,731.099c-13.28,-2.125 -22.565,-8.136 -27.269,-15.928c-3.8,-6.294 -4.848,-13.871 -2.49,-22.105l11.504,3.295c-3.642,12.716 6.41,21.945 24.155,23.402l-0.008,0.102c8.511,0.81 17.137,1.224 25.859,1.224c101.713,-0 190.378,-56.313 236.489,-139.436l-94.929,52.115l-0.543,-0.397l0,1.079l-51.05,0l0,0.057c-59.981,-0 -108.678,-48.697 -108.678,-108.678c0,-58.057 45.623,-105.542 102.941,-108.529l0,-0.149l152.437,0l12.966,-12.758l0,-0.251l0.256,-0l0.037,-0.037l0.036,0.037l67.163,-0l12.358,50.082l17.424,8.625l0.674,-0.025l0.014,0.366l28.971,14.34l-0.216,0.436l86.826,86.826l74.71,20.019l78.756,-0l0,-0.108c29.543,-0 53.528,-23.985 53.528,-53.528c-0,-26.314 -19.029,-48.218 -44.065,-52.692c-3.673,-0.55 -7.432,-0.835 -11.257,-0.835l-0,-11.966c0.599,0 1.198,0.006 1.794,0.018l0,-0.018c3.892,0 7.705,0.34 11.411,0.992c42.009,6.374 74.246,42.682 74.246,86.459c0,48.266 -39.186,87.452 -87.451,87.452l-0,-0.118l-109.211,-0c18.434,5.633 38,8.665 58.269,8.665l50.726,-0l-0,0.094c34.005,1.828 61.055,30.018 61.055,64.476c0,26.548 -16.056,49.377 -38.98,59.292c-15.032,6.501 -28.493,7.563 -37.773,7.563l-0,-11.966c7.271,0 17.484,-0.721 28.987,-4.964c3.225,-6.812 5.027,-14.426 5.027,-22.458c0,-28.329 -22.442,-51.458 -50.503,-52.562l0,0.115l-54.197,-0l0,-0.245c-64.444,-2.383 -121.554,-33.68 -158.723,-81.289l-33.17,29.459l-0.053,-0.059l-62.275,56.045c6.257,-1.344 12.749,-2.052 19.405,-2.052c49.917,0 90.61,39.812 92.031,89.388c0.393,2.783 0.597,5.626 0.597,8.516c0,33.305 -27.039,60.344 -60.344,60.344l-0,-11.966c26.7,0 48.378,-21.677 48.378,-48.378c-0,-1.975 -0.119,-3.922 -0.349,-5.835l-0.21,0c-0,-0.549 -0.006,-1.097 -0.017,-1.643c-3.599,-23.155 -23.645,-40.9 -47.802,-40.9c-18.211,-0 -34.084,10.086 -42.34,24.968l-0.014,-0.007c-10.298,18.532 -30.078,31.081 -52.765,31.081c-33.295,-0 -60.326,-27.031 -60.326,-60.326c0,-8.326 1.69,-16.26 4.746,-23.478c-38.264,19.399 -81.533,30.335 -127.336,30.335c-27.598,-0 -54.276,-3.972 -79.493,-11.371l0.061,-0.21Zm280.367,-174.217c4.543,-10.627 8.425,-21.604 11.593,-32.879l11.52,3.237c-30.04,106.915 -121.544,188.218 -233.903,203.297c3.271,0.117 6.556,0.176 9.855,0.176c148.69,0 269.494,-120.344 270.241,-268.86l-35.57,-17.606l5.308,-10.724l27.783,13.752l-7.69,-31.167l-52.964,-0l-80.133,78.846l73.96,61.928Zm-114.842,65.602l6.116,-30.995l-0.269,0.291l-82.266,-76.255l-63.938,9.434l-0.144,-0.976c-0.012,0.614 -0.018,1.229 -0.018,1.846c0,53.095 42.879,96.253 95.867,96.708l-0,-0.053l44.652,0Zm8.748,-44.332l15.282,-77.449l-85.264,12.581l69.982,64.868Zm26.469,-72.334l-21.96,111.296l93.546,-51.356l-71.586,-59.94Zm-79.024,-76.701c-48.944,0 -89.445,36.437 -95.834,83.641l58.787,-8.674l43.024,-74.967l-5.977,0Zm134.538,0l-114.765,0c-6.986,12.173 -33.214,57.874 -41.747,72.743l97.152,-14.335l59.36,-58.408Zm111.392,41.634l-6.098,-3.018c-2.39,94.429 -51.26,177.393 -124.565,226.849l0.03,0.049c-13.811,8.52 -23.027,23.788 -23.027,41.192c0,6.973 1.479,13.603 4.14,19.593l41.159,-37.041c2.803,-2.874 5.793,-5.565 8.949,-8.054l104.724,-94.248l-5.312,-145.322Zm31.02,15.355l-18.825,-9.319l1.17,32l17.655,-22.681Zm86.096,85.446l-72.802,-72.802l-24.652,67.032c5.974,9.05 16.555,24.797 18.74,27.831c15.921,22.109 36.257,40.831 59.712,54.87l57.858,-0c-44.18,-16.039 -81.514,-46.403 -106.374,-85.466l10.095,-6.425c10.219,16.058 22.672,30.558 36.92,43.061l20.503,-28.101Zm55.304,17.724l-44.687,-11.974l-16.342,22.399l61.029,-10.425Zm110.891,7.343l-0,0.158l-83.552,-0l-0,-0.031l-87.916,15.017c8.765,6.299 18.061,11.905 27.807,16.737l141.606,0l-0,0.084c40.596,-1.22 73.18,-34.56 73.18,-75.451c-0,-13.749 -3.684,-26.644 -10.118,-37.752c1.255,5.059 1.921,10.35 1.921,15.794c-0,35.288 -27.969,64.095 -62.928,65.444Zm-58.773,64.451c-4.434,-0.071 -8.835,-0.28 -13.199,-0.621l-89.864,-0c24.178,10.429 50.824,16.208 78.81,16.208l-0,0.099l44.163,-0l-0,-0.156c35.637,-0 64.569,28.932 64.569,64.569c0,4.835 -0.532,9.546 -1.542,14.078c12.379,-9.628 20.349,-24.663 20.349,-41.545c0,-29.033 -23.571,-52.604 -52.603,-52.604l-50.683,0l-0,-0.028Zm-198.007,-63.583c-2.481,-3.628 -6.503,-9.587 -10.492,-15.533l0.88,24.07l9.612,-8.537Zm-1.539,141.972c-14.248,-22.194 -39.148,-36.912 -67.457,-36.912c-18.563,0 -35.66,6.329 -49.249,16.945l-8.343,7.508c-0.244,0.252 -0.485,0.505 -0.725,0.76l-0.058,-0.055l-42.37,38.131c8.861,11.174 22.555,18.347 37.91,18.347c18.352,-0 34.328,-10.246 42.523,-25.322l0.017,0.009c10.356,-18.34 30.033,-30.729 52.579,-30.729c13.12,-0 25.268,4.196 35.173,11.318Zm-10.89,-210.497l2.407,9.941l8.584,-22.936l-11.024,12.087l0.033,0.908Z"/><path d="M586.376,494.632l-24.187,64.623l-7.922,-32.722l31.839,-34.907l0.27,3.006Z" style="fill-opacity:0.28;"/><circle cx="688.789" cy="434.886" r="20.889" style="fill:#fff;stroke:#000;stroke-width:8.33px;"/><circle cx="313.577" cy="420.991" r="20.889" style="fill:#fff;stroke:#000;stroke-width:8.33px;"/><circle cx="709.678" cy="487.229" r="10.63" style="fill:#fff;stroke:#000;stroke-width:8.33px;"/><circle cx="445.27" cy="788.123" r="13.617" style="fill:#fff;stroke:#000;stroke-width:8.33px;"/><circle cx="646.08" cy="760.89" r="13.617" style="fill:#fff;stroke:#000;stroke-width:8.33px;"/><circle cx="701.67" cy="700.847" r="18.638" style="fill:#fff;stroke:#000;stroke-width:8.33px;"/></g></g></g></svg>