<?xml version="1.0" encoding="UTF-8" standalone="no"?><!DOCTYPE svg PUBLIC "-//W3C//DTD SVG 1.1//EN" "http://www.w3.org/Graphics/SVG/1.1/DTD/svg11.dtd"><svg width="100%" height="100%" viewBox="0 0 1029 1182" version="1.1" xmlns="http://www.w3.org/2000/svg" xmlns:xlink="http://www.w3.org/1999/xlink" xml:space="preserve" xmlns:serif="http://www.serif.com/" style="fill-rule:evenodd;clip-rule:evenodd;stroke-linejoin:round;stroke-miterlimit:2;"><rect id="rihno" x="0.579" y="0.083" width="1028" height="1181.1" style="fill:none;"/><clipPath id="_clip1"><rect x="0.579" y="0.083" width="1028" height="1181.1"/></clipPath><g clip-path="url(#_clip1)"><g><path id="path78" d="M514.416,0.083l-513.837,295.268l-0,590.535l513.837,295.3l513.838,-295.3l0,-590.535l-513.838,-295.268Z" style="fill:#8e90fa;fill-rule:nonzero;"/></g><ellipse cx="506.161" cy="791.967" rx="353.988" ry="20.986" style="fill-opacity:0.14;"/><path d="M956.157,635.731l-1.627,30.14l-21.092,31.184l-32.352,17.214l-17.552,2.021l-27.375,28.784l-76.168,-14.384l-8.636,-24.262l-40.407,-0.774l-26.468,-46.497l-35.357,18.071l13.307,61.771l-47.948,27.856l5.846,31.5l-60.544,-35.925l20.608,-37.072l-37.116,-10.503l-7.911,2.541l-24.149,38.71l17.097,18.148l-59.313,-0.026l11.713,-53.927l-69.425,-1.808l-43.703,-10.6l-42.094,12.955l3.723,31.291l14.523,8.242l-48.48,19.21l-36.702,-36.61l11.258,-20.942l-32.992,-21.231l-26.53,32.388l-2.385,28.028l21.842,24.967l-79.842,3.316l-1.26,-86.917l31.936,-57.129l0.643,-57.876l8.787,-31.272l-38.283,11.648l-18.773,-6.882l-36.204,4.803l35.826,-29.738l22.801,6.288l41.019,-35.465l16.475,-49.267c-0,0 67.753,6.489 114.878,4.79c47.125,-1.7 131.924,-23.02 176.565,-41.726c44.641,-18.706 87.375,-57.131 87.375,-57.131l123.039,71.394l45.014,84.316l24.316,-28.206l12.389,24.547l-0.023,7.088l-19.526,12.595l30.141,60.923l41.001,69.581c-0,0 21.688,2.918 32.866,0c11.179,-2.917 55.249,-30.14 55.249,-30.14" style="fill:#b8c1e9;"/><path d="M799.374,496.271l-11.02,26.933l7.845,11.641l19.505,-8.884l-2.69,-16.692l-13.64,-12.998Z" style="fill:#44538b;"/><path d="M568.533,531.011l71.785,-149.98l-27.297,-14.694l-44.488,164.674Z" style="fill:#fff;"/><path d="M869.126,658.591l13.147,58.954l28.276,-4.809l36.097,-30.767l7.295,-42.719l-31.604,16.633l-22.859,6.894l-30.352,-4.186" style="fill:#fff;"/><path d="M953.941,639.25c0,-0 -13.691,53.884 -73.452,56.598c-42.352,1.922 0.371,18.154 0.371,18.154l24.907,3.543l43.565,-39.148l8.859,-31.526l-4.25,-7.621Z" style="fill-opacity:0.15;"/><path d="M876.748,708.209l-99.626,1.598l5.066,20.762l73.53,14.91l29.596,-25.425l-8.566,-11.845Z" style="fill-opacity:0.2;"/><path d="M225.184,498.41l-18.683,62.109l-31.068,7.126l-15.798,-9.428l-39.309,8.141l30.619,-30.216l29.387,4.83l44.852,-42.562" style="fill:#44538b;"/><path d="M195.993,522.406l-13.775,38.139l24.868,-1.795l13.229,-54.412l-24.322,18.068Z" style="fill-opacity:0.2;"/><path d="M750.674,496.271l-92.989,150.735l9.53,34.963l44.311,-23.378l39.148,-162.32Z" style="fill:#44538b;"/><path d="M750.674,493.858l-61.441,170.364l23.568,-8.646l37.873,-161.718Z" style="fill-opacity:0.3;"/><path d="M596.659,729.173l-69.272,-186.165l22.002,-63.477l-56.701,29.911l-21.247,6.297l-116.906,-18.174l119.678,-6.126l59.222,-30.645l52.789,-30.558l-17.303,97.248l45.767,193.803l-18.029,7.886Z" style="fill-opacity:0.13;"/><path d="M577.206,716.94l-49.262,-28.86l-68.749,-112.125l-135.436,35.47l-30.98,-1.171l-90.9,-25.742l-4.464,61.112l-31.107,58.401l-0.075,83.957l78.953,-0.561l-19.174,-25.409l9.263,-35.811l25.529,-20.303l23.533,5.948l5.259,13.883l-11.725,14.402l29.98,31.845l53.642,-6l-7.281,-12.569l-8.927,-31.136l54.112,-14.329l33.289,6.763l72.678,2.014l-14.726,55.637l53.815,-3.168l-12.999,-10.557l24.287,-39.654l21.465,-2.037Z" style="fill:#44538b;"/><path d="M283.71,676.076l-81.147,-28.167l1.081,-48.772l80.066,76.939Z" style="fill-opacity:0.14;"/><path d="M335.894,625.151l-35.851,56.818l-11.562,-0l15.539,-64.545l16.29,-4.23l15.584,11.957Z" style="fill-opacity:0.34;"/><path d="M456.325,579.132l45.234,135.748l67.362,0l-48.106,-32.911l-64.49,-102.837Z" style="fill-opacity:0.22;"/><path d="M554.851,714.88l-51.659,1.421l-16.413,60.077l64.88,-0l-20.665,-20.77l23.857,-40.728Z" style="fill-opacity:0.35;"/><path d="M542.074,740.869l-41.972,-10.478l3.739,-14.061l48.078,1.38l-9.845,23.159Z" style="fill-opacity:0.34;"/><path d="M390.17,703.685l-107.624,-21.716l-17.185,22.752l21.941,13.608l-9.422,25.445l33.646,32.604l50.858,-12.429l-12.662,-24.326l-3.538,-20.553l43.986,-15.385Z" style="fill-opacity:0.38;"/><path d="M116.912,564.512l-0.16,-0.16l35.041,-35.041l0.106,0.106l0.028,-0.106l26.208,7.023l40.489,-40.49l11.624,-43.379l0.052,0.014l0.12,-0.629c28.721,5.505 58.37,8.388 88.686,8.388c110.593,-0 212.297,-38.363 292.518,-102.497l0.128,0.161l0.232,-0.402l125.337,72.363l0.12,-0.069l47.527,82.319l14.718,-25.493l10.161,5.866l0.116,-0.066l18.458,31.97l-0.261,0.151l0.478,0.828l-27.012,15.596l64.662,111.997c24.398,10.216 54.715,5.926 74.557,-13.915c3.821,-3.821 7.085,-7.99 9.79,-12.405c-0.005,-0.021 -0.01,-0.042 -0.015,-0.063l0.063,-0.016c0.01,-0.016 0.019,-0.031 0.029,-0.047l0.047,0.029l11.368,-2.757c1.449,5.974 2.217,12.212 2.217,18.629c0,42.274 -33.322,76.826 -75.11,78.802l0.021,0.079l-0.07,0.019l0.021,0.021l-32.956,32.956l-0.212,0.791l-0.457,-0.122l-0.013,0.012l-0.022,-0.022l-77.825,-20.853l0.057,-0.213l-0.17,0.045l-5.467,-20.401l-3.122,0l-0,-0.288l-38.218,0l-0.04,0.023l-0.013,-0.023l-0.023,0l0,-0.038l-25.769,-44.635l-1.386,-0.371l0.231,-0.864l-29.449,17.003l15.535,57.977l-0.375,0.101l-49.192,28.4l8.209,30.633l-11.438,3.065l-0.116,-0.433l-0.165,0.286l-54.937,-31.718l-4.755,-2.746l-5.499,-3.175l20.64,-35.75l-14.43,-8.331l-17.576,0l-20.02,34.676l17.091,9.867l0.422,0l0,11.841l-74.16,0l-0,-7.099l-1.321,-0.354l13.111,-48.931l-66.921,0l-0.006,0.021l-0.077,-0.021l-0.401,0l-0,-0.107l-33.26,-8.912l-43.521,11.661l6.653,24.831l10.531,6.08l-0.169,0.292l0.16,-0.043l3.065,11.438l-59.522,15.949l-0.102,-0.383l-0.192,0.192l-40.736,-40.735l0.043,-0.043l-0.14,-0.081l12.669,-21.943l-19.366,-11.181l-30.252,30.251l0,19.459l21.353,21.353l0.391,-0l-0,0.391l0.007,0.007l-0.007,0.008l-0,11.435l-87.783,-0l0,-0.226l-4.939,0l0,-92.126l-0.188,-0.109l0.188,-0.326l0,-0.015l0.009,-0l31.667,-54.848l-0,-58.859l-0.073,-0.019l0.073,-0.27l-0,-0.215l0.057,-0l5.032,-18.779l-27.875,7.469l-0.034,0.058l-0.058,-0.033l-0.03,0.008l-0.008,-0.03l-14.352,-8.287l-37.314,9.998l-3.064,-11.437l0.028,-0.008Zm38.448,-22.022l-16.01,16.01l19.633,-5.261l0.014,0.049l14.328,8.272l29.833,-7.993l9.337,-34.847l-30.603,30.603l-0.069,0.258l-26.463,-7.091Zm80.517,-65.282l-27.916,104.184l93.603,25.081l2.835,-10.581l-68.522,-118.684Zm360.601,-93.252c-30.023,21.254 -62.587,39.154 -97.141,53.151l-11.14,41.573l98.072,-56.622l10.209,-38.102Zm-110.82,58.449c-35.266,13.039 -72.474,22.058 -111.066,26.501l0.369,0.213l-10.441,18.084l108.915,-0l0.26,-0.15l11.963,-44.648Zm-125.058,27.905c-13.677,1.171 -27.516,1.769 -41.494,1.769c-5.672,-0 -11.322,-0.099 -16.947,-0.294l49.874,13.364l8.567,-14.839Zm368.293,-31.639l-115.92,-66.927c-0.404,0.313 -0.809,0.626 -1.215,0.937l-7.089,26.458l144.849,83.628l2.417,-4.187l-23.042,-39.909Zm62.912,85.283l3.9,6.756l17.019,-9.826l-9.574,-16.582l-11.345,19.652Zm72.138,148.629l-49.382,-85.532l-0,54.604l56.136,56.137l-6.754,-25.209Zm-61.776,-106.998l-40.19,-69.612l-45.329,169.167l14.021,24.284l71.498,-123.839Zm150.319,78.366c-1.048,1.181 -2.137,2.338 -3.268,3.469c-19.799,19.799 -48.467,26.499 -74.212,20.7l11.078,41.344c36.204,-0.334 65.59,-29.424 66.402,-65.513Zm-100.444,97.804l24.004,-24.003l-1.131,-4.221l-90.515,0l2.916,10.881l64.726,17.343Zm-114.458,-40.353l43.338,0l0,0.1l0.238,-0.063l0.067,0.251l76.623,0l-54.781,-54.78l-0.35,-0l0,-58.599l-65.214,112.955l0.079,0.136Zm-66.405,-28.906l36.86,-21.281l0.056,0.096l36.557,-136.434l-79.029,136.884l5.556,20.735Zm4.891,64.007l-1.269,-4.736l-69.324,-0l-17.683,30.627l44.967,25.962l-5.907,-22.048l0.316,-0.084l-0.645,-1.116l49.545,-28.605Zm-4.442,-16.578l-18.531,-69.161l-0.429,-0.247l90.929,-157.495l-142.101,-82.042l-31.673,118.206l51.108,190.739l50.697,0Zm-114.309,-9.119l-38.07,-21.98l0.084,-0.144l-62.507,-108.265l-126.434,33.878l95.402,95.403l4.137,1.108l68.618,-0l0.042,-0.159l0.592,0.159l58.136,-0Zm-26.441,-28.939l65.919,38.058l11.876,0l-24.483,-91.37l-53.312,53.312Zm15.702,40.78l-38.945,0l-3.679,13.731l26.022,15.024l16.602,-28.755Zm-12.938,44.543l-32.859,-18.971l-5.083,18.971l37.942,0Zm-161.806,-59.692l-83.275,-22.313l-15.809,15.808l70.589,40.754l-6.663,-24.866l11.437,-3.065l0.01,0.036l23.711,-6.354Zm-76.319,-32.708l107.401,28.778l-85.734,-85.734l-6.901,1.849l-14.766,55.107Zm56.973,85.913l-58.785,-33.94l-8.136,14.092l29.797,29.796l37.124,-9.948Zm-126.702,-29.491l43.74,-43.741l-81.62,21.871l37.88,21.87Zm-3.222,33.64l-0.575,0l0,-22.159l-47.295,-27.306l-0,65.338l63.743,-0l-15.873,-15.873Zm-16.945,-115.465l-29.335,50.809l101.352,-27.156l-71.267,-71.267l-0,47.614l-0.75,0Zm38.97,-180.768l64.142,111.098l10.112,-37.737l0.325,0.088l26.733,-46.303l-101.312,-27.146Zm53.908,149.292l-80.929,-21.685l68.409,68.409l12.52,-46.724Zm18.556,-23.5l-3.233,12.065l137.764,-36.914l18.896,-70.518l-112.799,-0l-28.13,48.722l-12.447,46.453l0.07,0.122l-0.121,0.07Zm241.439,-64.819l-0.969,-0.26l24.41,-91.098l-98.072,56.621l-19.895,74.25l59.635,103.291l57.048,-57.049l-22.923,-85.55l0.766,-0.205Z"/></g></svg>