<?xml version="1.0" encoding="UTF-8" standalone="no"?><!DOCTYPE svg PUBLIC "-//W3C//DTD SVG 1.1//EN" "http://www.w3.org/Graphics/SVG/1.1/DTD/svg11.dtd"><svg width="100%" height="100%" viewBox="0 0 1029 1182" version="1.1" xmlns="http://www.w3.org/2000/svg" xmlns:xlink="http://www.w3.org/1999/xlink" xml:space="preserve" xmlns:serif="http://www.serif.com/" style="fill-rule:evenodd;clip-rule:evenodd;stroke-miterlimit:1.5;"><rect id="semantic_dashboards" x="0.555" y="0.381" width="1028" height="1181.1" style="fill:none;"/><g><g><path id="path78" d="M515.101,1.261l-513.455,295.047l0,590.095l513.455,295.08l513.454,-295.08l0,-590.095l-513.454,-295.047Z" style="fill:#4ab76c;fill-rule:nonzero;"/></g><path d="M715.514,387.009l45.3,1.651l11.545,-13.088l-31.495,-30.045l-16.105,-33.355l24.378,-21.42l-2.45,-34.771l-30.4,22.005l-18.115,26.698l-31.712,6.422l-8.153,-23.299l-56.491,-31.134l10.814,44.286l38.901,18.465l2.249,26.355l11.711,20.76l-19.338,75.442l-39.329,12.043l-62.658,-11.458l-119.585,1.033l-62.244,19.059l-34.489,6.567l-12.509,45.837l4.434,23.297l32.665,-21.9l-2.046,46.65l-7.418,38.882l-24.628,27.147l-42.791,156.105l-1.398,56.685l19.406,0.284l-0,-52.77l24.656,-85.649l45.595,-70.699l73.558,-41.656l12.828,0l-48.296,82.374l0,170.995l19.071,0l1.229,-87.297l13.597,-57.809l47.745,-86.442l46.679,7.079l31.751,-2.91l24.44,89.549l-0.407,108.503l6.656,24.816l16.443,1.651l-1.97,-18.331l-0.338,-118.194l25.628,-81.961l24.624,90.513l-0,86.043l9.567,44.586l22.148,-0.268l-12.514,-44.015l-0,-161.975l17.927,-71.109l6.008,-17.564l16.283,-22.954l-0.957,-139.709Z" style="fill:#f6a05a;"/><path d="M720.714,311.232l25.309,-20.246l-2.164,-30.186l-29.125,14.301l-17.755,27.264l23.735,8.867Z" style="fill:#88664a;"/><path d="M465.191,520.019l2.113,7.884l-21.989,5.891l-2.113,-7.883l21.989,-5.892Z" style="fill:#fff;"/><path d="M395.887,529.115l2.112,7.884l-17.245,4.621l-2.113,-7.884l17.246,-4.621Z" style="fill:#fff;"/><path d="M417.276,532.994l2.113,7.884l-17.245,4.621l-2.113,-7.884l17.245,-4.621Z" style="fill:#fff;"/><path d="M437.856,514.162l1.631,6.088l-19.907,5.334l-1.631,-6.088l19.907,-5.334Z" style="fill:#fff;"/><path d="M383.552,497.72l1.631,6.088l-19.907,5.334l-1.631,-6.088l19.907,-5.334Z" style="fill:#fff;"/><path d="M413.089,464.532l1.631,6.088l-19.907,5.334l-1.631,-6.088l19.907,-5.334Z" style="fill:#fff;"/><path d="M366.319,547.875l2.112,7.884l-14.666,3.93l-2.112,-7.884l14.666,-3.93Z" style="fill:#fff;"/><path d="M439.875,553.922l1.593,5.944l-14.667,3.93l-1.592,-5.944l14.666,-3.93Z" style="fill:#fff;"/><path d="M479.969,544.575l1.342,5.011l-26.673,7.147l-1.342,-5.011l26.673,-7.147Z" style="fill:#fff;"/><path d="M496.047,511.609l2.113,7.883l-16.681,4.47l-2.112,-7.884l16.68,-4.469Z" style="fill:#fff;"/><path d="M524.778,541.483l2.113,7.884l-16.681,4.47l-2.113,-7.884l16.681,-4.47Z" style="fill:#fff;"/><path d="M581.585,516.762l2.113,7.884l-16.681,4.469l-2.112,-7.884l16.68,-4.469Z" style="fill:#fff;"/><path d="M636.429,474.348l5.771,5.771l-12.211,12.211l-5.771,-5.771l12.211,-12.211Z" style="fill:#fff;"/><path d="M528.845,503.088l2.112,7.884l-16.228,4.348l-2.112,-7.884l16.228,-4.348Z" style="fill:#fff;"/><path d="M549.227,524.421l2.112,7.884l-25.699,6.886l-2.113,-7.884l25.7,-6.886Z" style="fill:#fff;"/><path d="M534.934,474.348l7.068,4.081l-8.076,13.988l-7.709,-2.971l8.717,-15.098Z" style="fill:#fff;"/><path d="M543.164,461.26l7.069,4.081l-5.2,9.007l-7.069,-4.081l5.2,-9.007Z" style="fill:#fff;"/><path d="M718.921,391.947l-66.631,29.118l15.833,-49.683l11.365,14.062l39.929,1.17l-0.496,5.333Z" style="fill-opacity:0.23;"/><path d="M603.677,810.203l-17.799,0l10.785,35.123l16.157,-2.839l-9.143,-32.284Z" style="fill:#4f4b54;"/><path d="M627.867,627.04c-17.811,11.723 -36.056,19.752 -54.666,24.676l-9.718,-34.288l69.703,-17.953l-5.319,27.565Z" style="fill-opacity:0.19;"/><path d="M710.498,529.789c-68.836,72.892 -199,88.9 -269.077,52.864l45.344,34.775l92.116,-0l89.165,-38.852l42.452,-48.787Z" style="fill-opacity:0.31;"/><path d="M767.859,372.347l-12.495,11.005l-73.946,0.643l-29.224,-35.891l1.62,-18.31l-4.896,-9.691l-33.605,-22.63l-9.92,-35.744l24.849,7.315l30.926,19.282l7.672,21.174l-8.045,11.418l3.297,7.979l23.424,8.201l21.164,19.534l38.483,9.852l23.242,5.657l-2.546,0.206Z" style="fill:#88664a;"/><path d="M356.969,463.787l-5.705,23.447l-1.708,29.01l-25.993,25.005l-10.372,-26.877l14.805,-43.822l28.973,-6.763Z" style="fill:#88664a;"/><path d="M341.775,467.804l-17.982,67.258l24.254,-18.226l6.139,-46.459l-12.411,-2.573Z" style="fill-opacity:0.18;"/><path d="M448.055,591.438l36.246,20.216l-46.177,82.402l-15.737,61.637l-0.951,89.114l-17.851,0l-0.867,-173.307l45.337,-80.062Z" style="fill:#88664a;"/><path d="M471.304,639.126l-37.748,-17.097l16.066,-25.183l33.979,15.414l-12.297,26.866Z" style="fill-opacity:0.18;"/><path d="M691.631,560.468l-55.042,35.143l-4.391,28.884l24.939,90.932l0.175,88.601l10.039,40.779l16.01,-3.671l-5.708,-31.512l-4.834,-178.538l18.812,-70.618Z" style="fill:#88664a;"/><path d="M675.654,810.203l-17.799,0l9.759,35.123l16.157,-2.839l-8.117,-32.284Z" style="fill:#4f4b54;"/><path d="M419.071,810.203l-17.799,0l4.436,35.123l16.587,-2.839l-3.224,-32.284Z" style="fill:#4f4b54;"/><path d="M291.028,810.203l-17.799,0l4.436,35.123l16.587,-2.839l-3.224,-32.284Z" style="fill:#4f4b54;"/><path d="M690.686,587.664c-14.17,15.933 -38.754,31.058 -55.455,40.631l-8.379,-23.794l62.681,-35.383l1.153,18.546Z" style="fill-opacity:0.19;"/><path d="M729.867,315.112l15.143,26.229l33.21,33.21l-7.664,7.664l-0.359,-0.36l-8.219,8.219l-0.001,0.269l-0.266,-0.002l-0.201,0.201l-0.202,-0.202l-40.229,-0.175l-0,142.903l0.205,0.155c-7.608,10.074 -16.018,19.51 -25.133,28.213l0,15.794l0.073,0.02l-0.073,0.279l0,0.095l-0.025,-0l-14.433,55.197l-0,176.669l7.441,27.772l-1.448,0.389l2.044,-0l-0,10.838l-25.391,0l-1.474,0.395l-0.105,-0.395l-0.315,0l0,-1.173l-9.443,-35.242l-0.072,0l-0,-0.271l-0.053,-0.197l0.053,-0.014l-0,-93.301l-21.764,-81.224l-18.843,70.321l0,109.062l5.707,21.297l0.21,0l-0,0.785l0.141,0.527l-0.141,0.038l-0,8.535l-25.489,-0l-3.358,0.9l-7.479,-27.914l-0.005,0l-0,-0.018l-0.033,-0.122l0.033,-0.008l-0,-112.921l-22.242,-83.008c-7.882,0.809 -15.88,1.224 -23.974,1.224c-16.679,-0 -32.951,-1.762 -48.638,-5.107l-45.733,79.211l-14.536,54.25l0,94.629l-0.306,0l0,0.006l-27.285,-0l0,-0.006l-1.57,0l0,-177.895l-0.081,-0.047l0.081,-0.14l0,-0.101l0.058,-0l43.615,-75.542l-3.12,-1.802l-69.424,40.082l-51.829,89.77l-18.335,68.429l-0,57.193l-1.86,-0l0,0.044l-17.611,-0l-0,0.009l-10.839,0l0,-60.163l0.203,0l42.473,-158.509l0.12,0.032l26.69,-26.691l8.5,-31.723l-0.761,-44.904l-16.958,16.958l-0.359,-0.359l0.239,0.891l-10.47,2.806l-8.378,-31.268l-0.077,-0.02l0.036,-0.134l-0.049,-0.181l0.105,-0.028l13.168,-49.145l-0.116,-0.433l0.25,-0.067l0.017,-0.064l0.111,0.03l29.722,-7.965l0.115,-0.427l0.741,0.198l72.449,-19.413l0,-0.011l0.041,0.001l0.697,-0.187l0.051,0.188l123.859,0.245l0.017,-0.062l0.232,0.063l0.787,0.001l0,0.209l47.155,12.636l41.544,-11.132l19.667,-73.399l-12.921,-18.88l-0.125,-0l0,-0.183l-0.047,-0.07l0.047,-0.032l0,-22.259l-36.397,-21.014l-0.332,0.088l-0.088,-0.331l-0.069,-0.04l0.039,-0.069l-13.56,-50.609l10.469,-2.805l0.118,0.442l0.038,-0.065l55.324,31.942l0.659,-0.176l7.347,27.419l-4.677,1.253l4.709,4.709l-8.169,8.17l26.81,7.183l0.064,-0.063l0.11,0.11l0.164,0.044l-0.025,0.095l20.951,20.951l41.435,11.103l-15.942,-15.942l0.081,-0.082l-19.541,-33.847l4.973,-2.871l-1.389,-1.371l21.881,-22.18l-0,-19.863l-24.136,14.601l-14.883,25.778l-9.387,-5.419l16.521,-28.615l0.234,0.135l36.767,-22.243l5.545,9.165l0.178,0l-0,30.878l-0.021,-0l0.026,0.025l-23.015,23.329Zm-110.322,-18.214l34.775,20.078l-0.072,0.125l5.533,-5.534l-5.655,-21.107l-42.951,-24.797l8.37,31.235Zm-21.505,165.347l-25.517,-6.838l-32.574,56.42l43.418,-11.843l45.56,-45.56l-29.186,7.821l-0.114,0.425l-0.737,-0.198l-0.736,0.198l-0.114,-0.425Zm-181.458,-10.317l-54.986,14.733l-5.897,22.009l0.02,1.164l66.262,-17.755l-5.399,-20.151Zm-0.634,301.771l-0.252,-0.067l10.926,-40.779l-8.666,-55.725l-9.492,16.442l-0,135.367l7.484,-0l-0,-55.238Zm72.892,-143.743c15.105,3.256 30.78,4.97 46.853,4.97c8.249,-0 16.393,-0.452 24.409,-1.332l0,-24.885l-17.764,-66.299l-91.566,24.976l-9.42,35.153l47.488,27.417Zm196.925,-53.638c4.472,-4.121 8.775,-8.422 12.896,-12.894l-28.962,-50.165l-24.908,92.957c14.622,-8.294 28.21,-18.203 40.522,-29.483l-0,-0.415l0.452,-0Zm-345.902,81.15l87.713,-50.641l2.625,-4.546l8.465,-31.593l-45.161,12.318l-46.021,46.022l-7.621,28.44Zm76.085,200.447l-0,-19.093l-7.484,-0l-0,19.093l7.484,0Zm190.861,-0.168l-4.935,-18.417l-0.39,0l0,-0.508l-8.737,-0l0,0.351l4.977,18.574l9.085,0Zm78.504,-261.611l-0,-4.977c-13.558,11.42 -28.437,21.32 -44.375,29.436l-4.162,15.533l26.645,99.441l0.347,0l0,93.368l7.086,-0l0,-178.421l0.239,-0l14.22,-54.38Zm-335.332,68.006l-14.085,8.132l-8.132,30.349l22.217,-38.481Zm328.037,193.509l-5.046,-18.829l-6.941,-0l5.045,18.829l6.942,-0Zm-243.881,-147.013l43.193,-74.812l-26.646,-15.384l-24.604,42.616l0.642,-0.1l7.415,47.68Zm115.374,-241.397l-122.003,-0.241l-0.457,0.123l5.585,20.844l103.027,27.606l26.022,-45.07l-12.174,-3.262Zm51.991,256.655l26.594,-99.25c-18.114,7.865 -37.423,13.489 -57.576,16.522l22.214,82.905l0.013,0l0,0.049l0.022,0.081l-0.022,0.006l0,102.728l8.737,-0l0,-102.904l-0.017,-0.005l0.017,-0.067l0,-0.065l0.018,0Zm-151.104,-169.643l74.697,-20.374l4.958,-8.588l-94.177,-25.235l14.522,54.197Zm139.326,-27.298l0.134,0.493l-37.064,10.11l17.788,66.386l0.359,0l0,26.189c21.445,-3.434 41.867,-9.949 60.796,-19.077l30.298,-113.071l-15.864,-27.477l-56.447,56.447Zm78.441,-130.451l-16.548,61.759l54.585,94.545c1.37,-1.648 2.716,-3.316 4.038,-5.004l0,-139.686l-34.222,-0.149l0,-0.008l-0.009,0.006l-7.844,-11.463Zm-322.915,133.213l-0.413,-24.344l0.197,-0.003l-0.194,-0.052l4.667,-17.418l-17.761,4.759l-10.987,41.005l4.341,16.202l20.15,-20.149Zm-66.131,307.105l-0,19.078l8.632,0l0,-19.078l-8.632,-0Zm378.775,-474.518l23.849,34.851l75.498,0.328l2.537,-2.537l-54.519,-14.609l-0.121,0.121l-21.299,-21.299l-25.945,-6.953l-0,10.098Zm-300.735,228.616l-4.065,15.169l19.334,-19.334l-15.269,4.165Zm-78.04,217.85l-0,18.167l8.632,-0l0,-19.587l0.194,0l38.611,-144.097l-0.044,-0.077l0.077,-0.044l5.567,-20.776l-11.538,11.537l-41.499,154.877Zm76.789,-289.765l1.03,60.741l83.003,-22.64l-15.154,-56.557l-68.879,18.456Z"/><ellipse cx="511.317" cy="848.565" rx="259.336" ry="19.209" style="fill-opacity:0.14;"/><path d="M724.943,313.672l-31.917,-8.552" style="fill:none;stroke:#000;stroke-width:10.84px;"/><path d="M696.069,305.046l-31.917,8.552" style="fill:none;stroke:#000;stroke-width:10.84px;"/></g></svg>