<?xml version="1.0" encoding="UTF-8" standalone="no"?><!DOCTYPE svg PUBLIC "-//W3C//DTD SVG 1.1//EN" "http://www.w3.org/Graphics/SVG/1.1/DTD/svg11.dtd"><svg width="100%" height="100%" viewBox="0 0 1029 1182" version="1.1" xmlns="http://www.w3.org/2000/svg" xmlns:xlink="http://www.w3.org/1999/xlink" xml:space="preserve" xmlns:serif="http://www.serif.com/" style="fill-rule:evenodd;clip-rule:evenodd;stroke-linejoin:round;stroke-miterlimit:2;"><rect id="shiny_validator" x="0.764" y="0.126" width="1028" height="1181.1" style="fill:none;"/><clipPath id="_clip1"><rect x="0.764" y="0.126" width="1028" height="1181.1"/></clipPath><g clip-path="url(#_clip1)"><g><g><path id="path78" d="M514.601,-5.842l-513.837,295.268l-0,590.535l513.837,295.3l513.838,-295.3l0,-590.535l-513.838,-295.268Z" style="fill:#f24d54;fill-rule:nonzero;"/></g><g><path d="M370.077,502.565l-25.615,-24.331l-14.396,13.441l-2.397,7.808l42.408,3.082Z" style="fill:#2a3a5b;"/><path d="M813.97,592.019l8.651,-27.234l-34.777,-60.761l-70.038,-44.874l-57.02,17.809l-13.51,27.065l-48.351,-27.716l-34.974,9.641l-34.439,32.921l-78.678,20.701l-79.164,-35.547c-0,-0 -50.537,-12.127 -81.914,9.679c-31.377,21.805 -51.228,44.404 -59.4,63.751c-8.172,19.348 -7.484,67.092 -6.862,76.287c0.622,9.196 -31.79,60.062 -31.79,60.062l60.088,-28.662l36.174,11.951l77.4,-17.072l55.881,-61.299l22.733,0l-1.616,82.128l27.977,-64.802l13.492,9.693l28.847,-5.049l42.816,-41.622l1.414,29.171l50.236,-39.176l65.36,58.492l-40.738,-82.351l20.32,-4.944l59.752,58.46l-25.527,-59.594l48.961,-9.915l54.909,15.164l23.787,27.643Z" style="fill:#678abf;"/><path d="M354.09,508.507c-87.431,4.521 -139.216,70.975 -119.577,156.13c-0,-0 -43.542,-65.352 24.444,-133.338c29.927,-29.927 95.133,-22.792 95.133,-22.792Z" style="fill:#fff;"/><path d="M571.999,501.065l-45.443,36.604l7.348,-18.746l25.691,-27.248l12.404,9.39" style="fill:#fff;"/><path d="M733.181,473.527l-79.439,18.148l10.326,-17.377l54.205,-9.506l14.908,8.735Z" style="fill:#fff;"/><path d="M786.861,541.838l-40.669,-10.539l-10.409,22.466l59.147,7.797l-8.069,-19.724Z" style="fill-opacity:0.22;"/><path d="M223.285,664.162l33.269,15.43l-65.91,38.72l32.641,-54.15Z" style="fill:#3a507e;"/><path d="M425.51,618.721l-34.866,-51.316l-76.557,80.151l-79.043,19.754l51.924,28.033l72.181,-16.495l66.361,-60.127Z" style="fill:#3a507e;"/><path d="M256.554,681.853l77.865,-14.79l78.726,-62.219l12.365,15.188l-63.429,61.821l-82.54,13.49c0,0 -22.987,-13.49 -22.987,-13.49Z" style="fill-opacity:0.26;"/><path d="M596.075,555.348l-83.996,83.127l-31.187,9.081l-27.468,-28.835l-14.464,-78.463l68.202,43.363l13.152,-12.785l75.761,-15.488Z" style="fill:#3a507e;"/><path d="M453.569,593.752l49.862,22.674l78.784,-54.864l-67.614,78.388l-34.466,5.172l-19.597,-23.759l-6.969,-27.611Z" style="fill-opacity:0.28;"/><path d="M719.997,551.65l-48.248,-31.964l-69.522,73.154l11.293,3.274l55.996,51.442l-36.993,-79.519l14.153,-8.073l15.732,13.245l47.314,45.512l-20.429,-58.303l30.704,-8.768Z" style="fill:#3a507e;"/><path d="M192.868,723.534l-70.695,18.943l-3.016,-11.255l66.274,-17.758l33.453,-57.942c-17.089,-57.31 10.463,-110.045 53.113,-138.42c13.172,-8.764 27.775,-15.188 42.935,-18.715l30.683,-30.682l0.033,0.033l0.149,-0.15l36.214,36.215l65.016,31.896l81.446,-21.824l29.641,-29.64l-0.033,-0.121l42.91,-11.498l0.077,0.288l0.085,-0.148l41.987,24.241l13.959,-24.176l-0.018,-0.068l0.067,-0.018l0.214,-0.371l0.371,0.214l60.176,-16.124l0.185,-0.32l0.321,0.185l0.074,-0.02l0.02,0.074l41.701,24.076l31.78,-55.045l-0.137,-0.511l60.764,-16.282l0.144,-0.248l19.742,11.398l-5.827,10.091l-15.313,-8.841l-51.32,13.751l-29.742,51.513l7.984,4.61l46.157,-46.158l0,-0.157l50.905,-0l-0,0.71l34.699,9.298l-3.016,11.255l-34.762,-9.315l0.079,-0.296l-42.921,0l-40.694,40.694l1.754,1.013l0.287,-0.166l0.288,0.498l0.583,0.337l-0.194,0.336l36.336,62.937l0.149,0.04l-0.04,0.149l0.224,0.387l-0.387,0.223l-9.681,36.131l-11.256,-3.016l0.079,-0.292l-12.858,-22.27l-63.927,-17.13l-38.505,4.489l34.214,59.259l-0.507,0.292l9.519,35.525l39.669,-0l-0,11.652l-47.351,0l-1.175,0.315l-0.084,-0.315l-0.26,0l-0,-0.97l-7.847,-29.284l-71.222,-71.223l-9.556,1.114l48.489,83.985l-0.506,0.293l2.367,8.834l0.514,0.514l-0.297,0.296l19.613,73.196l40.813,10.936l-3.016,11.255l-46.945,-12.579l-0.317,0.085l-20.812,-77.671l-71.332,-71.332l-43.765,43.764l-0,0.415l-11.652,-0l-0,-29.098l-34.137,34.136l-0.46,-0.46l0.126,0.473l-33.416,8.953l-0.486,0.486l-9.546,-9.545l-20.973,78.274l0.202,0.35l-45.028,25.997l-5.826,-10.091l39.1,-22.574l-0,-92.303l-17.164,4.599l-52.941,52.941l-0.127,-0.128l0.033,0.123l-83.85,22.467l-0.042,0.072l-0.072,-0.041l-0.453,0.121l-0.121,-0.453l-28.275,-16.324l-62.222,35.924l0.068,0.252l-0.943,0.253l-0.028,0.016l-0.004,-0.007l-0.444,0.119l-0.088,0.152l-0.153,-0.088Zm31.964,-55.01l-20.198,34.984l40.396,-23.323l-20.198,-11.661Zm108.523,-172.945c8.297,-0.6 16.653,-0.302 24.933,0.979l-12.956,-12.956l-11.977,11.977Zm20.022,12.579c-25.952,-3.172 -52.528,4.364 -74.64,19.075c-40.422,26.893 -66.027,77.958 -45.551,132.659l0.223,0.129l77.769,-20.838l74.712,-74.712l-32.513,-56.313Zm77.745,33.293c-21.476,-10.536 -59.546,-29.213 -59.552,-29.215c-0.968,-0.321 -1.938,-0.625 -2.91,-0.913l59.591,103.216l20.951,-5.614l-18.08,-67.474Zm90.758,-13.746l-64.166,17.194l51.58,29.779l12.586,-46.973Zm39.222,-29.98l-26.072,26.073l0.096,0.358l-0.249,0.067l-10.989,41.01l74.281,-19.903l16.613,-16.613l-53.68,-30.992Zm38.189,-12.59l-25.06,6.715l49.081,28.337l13.429,-13.43l-37.45,-21.622Zm53.941,17.688l72.772,42.015l4.703,-0.548l0.033,-0.058l0.007,-0.026l0.007,0.002l29.146,-50.483l-43.131,-24.902l-51.943,13.918l-11.594,20.082Zm53.382,44.276l-33.854,-19.546l-26.592,26.592l60.446,-7.046Zm-44.301,-25.578l-15.125,-8.732l-85.398,85.398l-0,23.857l100.523,-100.523Zm120.218,-14.73l-12.539,-7.239l-27.585,47.778l43.37,11.621l-8.316,-14.402l10.092,-5.826l23.586,40.852l4.252,-15.868l-32.86,-56.916Zm-103.553,55.261l-17.68,2.061l44.647,44.646l-26.967,-46.707Zm-15.414,74.237l-36.434,-63.105l-13.336,13.335l49.77,49.77Zm-153.489,-2.865l71.615,-71.615l-61.284,16.42l-0.665,2.481l0.008,0.005l-0.017,0.03l-14.46,53.966l4.803,-1.287Zm-25.108,6.727l7.308,-1.958l13.897,-51.862l-60.287,-34.807l18.134,67.68l20.948,20.947Zm-22.262,-5.782l-11.359,-11.36l0,53.753l11.359,-42.393Zm-99.106,36.218l52.782,-52.782l-0.021,-0.08l0.138,-0.037l0.074,-0.074l-24.651,-42.696l-68.373,68.374l29.991,29.991l10.06,-2.696Zm-76.422,20.477l53.366,-14.299l-26.332,-26.332l-66.531,17.827l39.497,22.804Z"/><ellipse cx="470.661" cy="740.406" rx="348.341" ry="20.651" style="fill-opacity:0.14;"/></g></g></g></svg>