<?xml version="1.0" encoding="UTF-8" standalone="no"?><!DOCTYPE svg PUBLIC "-//W3C//DTD SVG 1.1//EN" "http://www.w3.org/Graphics/SVG/1.1/DTD/svg11.dtd"><svg width="100%" height="100%" viewBox="0 0 1029 1182" version="1.1" xmlns="http://www.w3.org/2000/svg" xmlns:xlink="http://www.w3.org/1999/xlink" xml:space="preserve" xmlns:serif="http://www.serif.com/" style="fill-rule:evenodd;clip-rule:evenodd;stroke-linejoin:round;stroke-miterlimit:2;"><rect id="shiny_i18n" x="0.461" y="0.619" width="1028" height="1181.1" style="fill:none;"/><clipPath id="_clip1"><rect x="0.461" y="0.619" width="1028" height="1181.1"/></clipPath><g clip-path="url(#_clip1)"><g><g><path id="path78" d="M514.059,0.619l-513.837,295.267l-0,590.535l513.837,295.3l513.838,-295.3l-0,-590.535l-513.838,-295.267Z" style="fill:#f24d54;fill-rule:nonzero;"/></g><g><path d="M570.264,724.434l-32.176,16.674l-1.076,45.089l-52.05,36l38.277,2.503l35.873,-10.188l58.178,-0.416l-47.026,-28.54l0,-61.122" style="fill:#4e4e50;"/><path d="M570.264,751.726l-30.851,16.494l-0.262,-30.598l31.113,-13.188l0,27.292Z" style="fill-opacity:0.26;"/><path d="M676.584,363.006l-22.424,-65.596l-44.778,-23.731l-68.58,2.919l-53.764,30.404l-42.598,152.66l-124.24,214.471l-102.455,99.873l54.969,1.787l-19.653,43.64l128.65,-31.949l25.058,-28.736l96.762,-23.996l15.597,14.65l82.882,-44.052l27.041,-96.028l28.465,-30.035l18.96,-72.104l-18.67,-69.907l18.778,-74.27Z" style="fill:#d2ab7c;"/><path d="M382.865,571.468l76.369,-107.777l-17.387,-0.799l-58.982,108.576" style="fill:#fff;"/><path d="M654.557,383.13l-9.404,-41.84l-35.677,-16.677l-22.965,94.324l-38.184,1.777l-29.388,-94.491l-43.165,28.627l17.802,62.046l61.958,62.215l60.702,-29.781l38.321,-66.2Z" style="fill:#fff;"/><path d="M562.283,465.072l18.89,-11.945l47.945,-115.895l-17.056,-12.619l-30.889,106.038l-18.89,34.421Z" style="fill-opacity:0.15;"/><path d="M581.173,420.714l-30.336,1.433l11.446,33.851l18.89,-35.284" style="fill:#b37734;"/><path d="M459.234,412.44l115.472,114.48l37.936,-22.256l33.858,-26.624l28.124,-111.57l-56.832,90.202l-59.547,27.613l-62.931,-57.863l-26.991,-71.572l-9.089,57.59Z" style="fill-opacity:0.24;"/><path d="M401.876,572.773l-79.467,103.076l48.377,-98.312l41.832,-6.41" style="fill:#fff;"/><path d="M537.447,544.691l-148.679,124.265l119.461,-124.265l29.218,0Z" style="fill:#fff;"/><path d="M440.86,560.089l-134.094,124.758l13.081,42.194l184.547,-182.35l-63.534,15.398Z" style="fill:#b37734;fill-opacity:0.25;"/><path d="M564.871,546.556l-227.704,175.739l179.407,-42.654l74.727,-134.95l-26.43,1.865" style="fill:#b37734;fill-opacity:0.18;"/><path d="M657.2,437.993l-17.35,48.672l-26.972,24.141l-96.298,170.405l-195.57,48.411l-15.477,-39.621l-87.788,85.709l57.034,0.727l-17.238,42.996l123.973,-30.176l30.861,-30.509l83.892,-21.119l22.058,15.08l81.474,-45.809l25.505,-99.711l32.364,-28.881l18.916,-73.729l-19.384,-66.586" style="fill:#b37734;"/><path d="M312.562,708.497l-37.344,70.08l-57.473,-3.048l86.63,-90.682l8.187,23.65Z" style="fill-opacity:0.27;"/><path d="M667.342,473.9l-10.986,23.554l-31.608,27.63l-90.598,162.269l-53.998,20.634l-170.678,44.345l-14.44,-50.919l9.144,-14.06l15.443,41.373l193.089,-49.762l100.776,-170.389l34.1,-35.459l10.725,-35.123l9.031,35.907Z" style="fill-opacity:0.17;"/><path d="M613.988,267.725l0.09,-0.157l47.668,27.521l0.115,-0.031l18.752,69.986l0.173,0.046l-0.08,0.299l0.08,0.298l-0.173,0.046l-18.217,67.99l19.261,71.883l0.149,0.04l-0.069,0.259l0.069,0.258l-0.149,0.04l-20.15,75.199l0.058,0.057l-31.702,31.701l-25.177,94.26l-0.212,-0.056l0.067,0.116l-29.783,17.195l0,55.673l45.292,26.15l0.295,-0l-0,0.17l0.434,0.25l-0.434,0.753l-0,9.919l-57.822,-0l-40.565,10.869l-0.098,-0.367l-45.707,0l0,-11.092l0.584,0l-0.284,-0.492l56.153,-32.42l0,-35.076l-16.047,9.265l-0.055,-0.096l-0.116,0.117l-16.071,-16.071l-91.921,24.63l-25.059,25.059l-0.383,-0.384l-129.417,34.678l-0.138,0.238l-0.239,-0.138l-0.169,0.046l-0.045,-0.17l-9.153,-5.284l7.655,-13.259l-0.123,-0.214l0.37,-0.213l14.543,-25.19l-49.001,-0l-0.182,0.182l-0.182,-0.182l-0.423,-0l-0,-0.423l-7.238,-7.239l104.532,-104.531l0.024,0.024l124.274,-215.251l40.456,-150.983l0.23,0.062l-0.33,-0.572l61.567,-35.545l0.083,0.144l0,-0.093l73.94,0l-0,0.106Zm-71.14,10.986l-54.645,31.55l-7.873,29.38l33.533,-19.36l-0.029,-0.107l10.714,-2.871l26.418,98.591l29.474,-0l26.534,-99.028l10.714,2.871l-0.029,0.108l35.013,20.214l0.239,-0l0.001,0.139l0.096,0.056l-0.096,0.166l0.111,34.883l3.749,-2.165l0.091,0.157l9.888,-17.128l-14.385,-53.685l-41.171,-23.771l-68.347,0Zm127.405,227.194l-13.599,-50.754l-7.201,26.876l-0.545,-0.146l0.021,0.022l-30.642,30.642l-24.576,42.567l20.12,75.089l6.096,-22.825l0.222,0.06l-0.124,-0.124l31.496,-31.495l18.732,-69.912Zm-291.994,275.402l80.453,-80.452l-1.139,0.305l-190.352,109.899l111.038,-29.752Zm185.407,-50.228l-19.968,11.529l0,35.227l19.968,-11.528l0,-35.228Zm50.146,-283.218l32.139,-55.667l-61.109,35.282l-22.459,38.899l-9.306,-5.373l-0.279,0.075l-9.829,-36.683l-58.375,-58.375l13.968,52.126l61.023,61.024l54.227,-31.308Zm-18.648,252.225l13.049,-48.855l-82.807,22.189l-6.594,11.42l-0.105,-0.061l-38.567,10.334l-56.058,56.058l79.545,-21.314l0.003,-0.003l0.002,0.001l0.059,-0.015l0.027,0.102l14.544,14.543l76.902,-44.399Zm-121.977,-333.784l-23.524,87.793l69.162,0l-30.068,-30.068l-0.096,0.025l-15.474,-57.75Zm99.13,60.684l-17.17,-0l5.443,20.311l11.727,-20.311Zm42.37,-96.049l-21.08,78.67l48.344,-27.911l-0.111,-35.082l-27.153,-15.677Zm-50.897,455.477l-0.124,-0l0,-7.299l-47.107,27.197l-0.066,-0.113l-18.708,10.801l24.083,0l38.87,-10.415l0,-0.087l0.325,-0l0.049,-0.013l0.004,0.013l36.75,-0l-34.253,-19.777l0.177,-0.307Zm-260.865,-90.077l-74.596,74.597l44.313,-0l34.336,-59.472l-4.053,-15.125Zm361.956,-314.746l-42.834,74.191l0.057,0.099l-0.172,0.1l-0.336,0.581l-0.335,-0.194l-21.133,12.202l17.001,29.446l22.616,-22.616l11.167,-41.677l-0.146,-0.546l0.315,-0.085l13.8,-51.501Zm-148.046,-50.218l-32.459,18.741l51.199,51.2l-18.74,-69.941Zm-195.91,346.965l-8.943,8.943l9.457,35.295l169.825,-169.825l-114.844,30.772l-54.93,95.142l-0.565,-0.327Zm123.816,-213.151l-60.477,104.751l123.508,-33.094l0,-0.025l0.094,-0l0.135,-0.036l0.01,0.036l42.14,-0l57.429,-33.157l-17.058,-29.546l-32.82,18.948l-0.239,-0.413l-0.041,0.041l-27.505,-27.505l-85.176,0Zm67.049,82.724l-173.81,173.81l173.584,-46.511l70.243,-121.665l-0.034,-0.128l0.129,-0.035l3.158,-5.471l-73.27,-0Zm60.545,-11.092l19.129,-0l9.565,-16.567l-28.694,16.567Zm32.792,103.756l-19.26,-71.878l-52.618,91.138l71.878,-19.26Zm-294.089,86.039l-40.131,69.51l145.27,-83.872l-102.236,27.394l-2.871,-10.714l0.55,-0.147l-0.582,-2.171Z"/><ellipse cx="497.693" cy="828.043" rx="225.8" ry="19.016" style="fill-opacity:0.14;"/></g></g></g></svg>