<?xml version="1.0" encoding="UTF-8" standalone="no"?><!DOCTYPE svg PUBLIC "-//W3C//DTD SVG 1.1//EN" "http://www.w3.org/Graphics/SVG/1.1/DTD/svg11.dtd"><svg width="100%" height="100%" viewBox="0 0 1029 1182" version="1.1" xmlns="http://www.w3.org/2000/svg" xmlns:xlink="http://www.w3.org/1999/xlink" xml:space="preserve" xmlns:serif="http://www.serif.com/" style="fill-rule:evenodd;clip-rule:evenodd;stroke-miterlimit:1.5;"><rect id="shiny_router" x="0.069" y="0.402" width="1028" height="1181.1" style="fill:none;"/><clipPath id="_clip1"><rect x="0.069" y="0.402" width="1028" height="1181.1"/></clipPath><g clip-path="url(#_clip1)"><rect x="0.069" y="945.283" width="1182.39" height="236.22" style="fill:none;stroke:#00d8ff;stroke-opacity:0;stroke-width:1.46px;"/><rect x="0.069" y="1.276" width="1182.39" height="236.22" style="fill:none;stroke:#00d8ff;stroke-opacity:0;stroke-width:1.46px;"/><g><g><path id="path78" d="M515.53,3.385l-512.54,294.522l0,589.043l512.54,294.554l512.539,-294.554l0,-589.043l-512.539,-294.522Z" style="fill:#f24d54;fill-rule:nonzero;"/></g><g><ellipse cx="513.125" cy="835.747" rx="283.742" ry="19.514" style="fill-opacity:0.14;"/><path d="M828.927,542.219l-43.057,-71.864l-51.094,-28.408l-38.799,-56.769l-24.585,76.493l-42.939,22.394l-117.542,27.833l-39.999,63.728l19.797,-89.16l-31.237,-139.869l-138.96,-33.234l-116.17,68.864l101.745,2.793l18.063,5.163l-0.32,12.373l-7.28,17.525l-30.663,27.531l-33.616,57.912c-0,-0 -5.717,99.554 8.322,127.113c14.039,27.56 44.918,131.957 117.148,164.403c72.231,32.447 61.145,35.7 61.145,35.7l80.143,2.047l193.045,-3.335l-19.586,-27.028l-69.051,1.935l61.845,-107.808l-0.858,-55.25l34.479,5.779l39.379,-23.295l44.162,21.485l7.917,-30.097l-22.932,-20.415l-58.963,0.14l21.556,-26.69l45.129,3.399l33.776,-31.388Z" style="fill:#f58d3d;"/><clipPath id="_clip2"><path d="M828.927,542.219l-43.057,-71.864l-51.094,-28.408l-38.799,-56.769l-24.585,76.493l-42.939,22.394l-117.542,27.833l-39.999,63.728l19.797,-89.16l-31.237,-139.869l-138.96,-33.234l-116.17,68.864l101.745,2.793l18.063,5.163l-0.32,12.373l-7.28,17.525l-30.663,27.531l-33.616,57.912c-0,-0 -5.717,99.554 8.322,127.113c14.039,27.56 44.918,131.957 117.148,164.403c72.231,32.447 61.145,35.7 61.145,35.7l80.143,2.047l193.045,-3.335l-19.586,-27.028l-69.051,1.935l61.845,-107.808l-0.858,-55.25l34.479,5.779l39.379,-23.295l44.162,21.485l7.917,-30.097l-22.932,-20.415l-58.963,0.14l21.556,-26.69l45.129,3.399l33.776,-31.388Z"/></clipPath><g clip-path="url(#_clip2)"><path d="M461.078,597.505l-36.423,128.355l46.566,108.927l64.011,0l-68.038,-118.641l-6.116,-118.641Z" style="fill:#ce472b;"/><path d="M523.61,811.998c-124.931,1.74 -322.735,-159.8 -225.42,-374.644c-99.672,82.5 -117.189,176.321 -166.218,268.899l283.942,161.427l119.318,-28.242l-11.622,-27.44Z" style="fill:#ce472b;"/><path d="M321.587,419.681c-57.534,54.148 -49.815,287.449 140.545,300.626l71.862,113.827l-279.091,-23.521l-53.373,-379.604l120.057,-11.328Z" style="fill:#0a0400;fill-opacity:0.13;"/></g><path d="M462.845,719.461l26.053,112.775l45.096,-0l-71.149,-112.775Z" style="fill:#240600;fill-opacity:0.29;"/><path d="M695.42,391.885l-1.765,60.536l-18.422,3.175l20.187,-63.711Z" style="fill:#fff;"/><path d="M627.044,486.17l72.412,128.079l28.686,-26.96l-71.619,-118.789l-29.479,17.67Z" style="fill:#f7ac6c;"/><path d="M320.364,316.912l-33.3,64.233l-77.903,-2.145l111.203,-62.088Z" style="fill:#f7ac6c;"/><path d="M454.396,472.742l-83.299,-145.416l83.863,22.723l39.887,136.121l-40.451,-13.428Z" style="fill:#f7ac6c;"/><path d="M487.961,481.292l-51.659,-133.275l19.938,1.012l31.721,132.263Z" style="fill:#fff;"/><path d="M595.798,495.895l93.831,131.416l9.827,-7.87l-74.011,-133.271l-29.647,9.725Z" style="fill-opacity:0.11;"/><path d="M606.054,608.635l-135.858,110.826l115.514,-121.956l20.344,11.13Z" style="fill:#fff;"/><path d="M804.016,644.89l7.551,-30.468l-21.48,-16.917l-65.943,2.138l-41.795,38.397l-3.157,12.746l-69.691,20.833l-85.891,137.754l8.441,21.013l185.666,4.401l-21.142,-30.953l-72.402,1.503l59.328,-104.588l1.805,-56.34l22.421,1.336l14.182,2.511l43.416,-21.948l38.691,18.582Z" style="fill:#ce472b;"/><path d="M657.104,811.839l-99.57,20.397l62.593,-25.634l36.977,5.237Z" style="fill:#100300;fill-opacity:0.27;"/><path d="M756.611,601.301l-68.625,39.026l34.64,-39.121l33.985,0.095Z" style="fill-opacity:0.35;"/><path d="M198.201,378.676l-0.51,-0.884l123.23,-71.147l0.811,1.404l0.314,-1.171l138.656,37.153l-0.536,2.002l1.495,-0.401l37.153,138.656l-1.331,0.357l1.331,0.357l-16.777,62.613l20.24,-35.057l1.369,0.791l-0.352,-1.317l116.989,-31.347l45.317,-26.164l0.179,0.31l-0.083,-0.309l2.423,-0.649l19.703,-73.534l1.037,0.278l8.42,-4.861l35.151,60.884l2.42,-0.648l0.321,1.195l0.602,-1.043l52.481,30.3l-0.69,1.195l1.205,-0.696l44.539,77.145l-1.264,0.73l1.054,1.054l-33.021,33.022l-0.908,-0.908l0,1.269l-49.239,0l-13.168,13.169l56.425,-0l-0,0.948l0.693,-0.693l22.062,22.062l-0.755,0.755l1.024,0.23l-8.027,35.759l-9.462,-2.124l-0.452,0.782l-32.223,-18.604l-43.688,25.223l-0.526,-0.912l-0.288,1.075l-33.733,-9.039l0,55.642l-0.79,0l0.755,0.436l-56.364,97.625l64.896,-0l-0,1.317l0.903,-0.904l25.213,25.213l-0.924,0.924l-0,9.507l-278.954,0l0,-1.418l-0.456,1.177c-116.985,-45.331 -200.025,-159 -200.025,-291.912c0,-53.902 26.842,-101.586 67.879,-130.397l-0.001,-0.003c0.039,-0.026 0.079,-0.052 0.118,-0.079c0.081,-0.057 0.163,-0.113 0.244,-0.17l0.002,0.004c4.275,-2.921 7.813,-6.893 7.813,-12.441c0,-7.615 -6.182,-13.798 -13.797,-13.798l-0,-0.095l-106.123,0l0,-9.838Zm111.785,-53.223l-90.484,52.241l60.323,-0l30.161,-52.241Zm142.452,27.566l-72.414,-19.403l79.487,137.675l26.522,7.107l-33.595,-125.379Zm-87.195,-23.364l-34.627,-9.278l33.595,125.379l80.519,21.575l-79.487,-137.676Zm97.314,248.851l23.799,-88.819l-25.27,-6.771l-46.521,12.465l47.992,83.125Zm45.925,-55.053l-36.388,63.024l99.885,0l-63.024,-63.024l-0.473,-0Zm112.643,-31.791l-78.26,20.97l90.367,-0l-12.107,-20.97Zm34.294,-18.768l-24.476,14.131l71.71,124.205l20.69,-20.69l-67.924,-117.646Zm24.769,-22.255l41.422,-11.099l-26.261,-45.485l-15.161,56.584Zm53.584,-3.156l-48.662,13.039l71.247,0l-22.585,-13.039Zm46.9,27.078l-2.783,-1.607l23.843,88.982l18.63,-18.63l-39.69,-68.745Zm-34.603,94.956l0,-1.082l46.202,-0l-26.016,-97.092l-99.236,0l64.245,111.276l13.953,-13.954l0.852,0.852Zm43.073,33.727l-50.461,0l61.298,35.391l4.501,-20.053l-15.338,-15.338Zm-33.916,22.047l-32.543,-18.788l-31.172,31.172l28.868,7.735l34.847,-20.119Zm-78.234,75.711l-0,-41.678l-59.697,15.996l55.893,32.27l3.804,-6.588Zm-56.973,98.679l43.941,-76.108l-95.639,25.626l-8.935,15.476l60.633,35.006Zm72.298,12.728l-67.055,0l-53.802,14.417l135.273,-0l-14.416,-14.417Zm-247.05,14.417l77.927,-0l-62.004,-107.393l0.918,-0.53l-1.117,0l0,-52.14l-39.915,-23.045l-71.169,123.269c27.526,25.504 59.809,45.945 95.36,59.839Zm-192.188,-280.101c0.332,82.993 34.222,158.131 88.792,212.539l69.834,-120.956l-158.626,-91.583Zm63.218,-122.635c-2.95,2.07 -5.822,4.246 -8.609,6.52l44.454,11.912l-30.828,-115.049l-28.994,50.221l12.004,-0l-0,-0.095c13.692,-0 24.808,11.116 24.808,24.808c-0,9.518 -5.478,16.719 -12.835,21.683Zm-18.276,15.133c-23.583,22.921 -39.574,53.614 -43.818,87.925l185.979,-49.833l-142.161,-38.092Zm155.106,144.59l-49.382,-85.532l-134.916,36.15l184.298,49.382Zm123.741,13.485l-105.056,0l0,105.056l105.056,-105.056Zm-52.61,-73.845l67.209,67.209l85.525,49.377l-0,-2.813l1.095,-0l-0.715,-0.715l17.359,-17.359l-55.252,-95.699l-115.221,-0Zm79.314,145.676l-0.333,-1.245l68.533,-18.363l-83.573,-48.251l-115.85,115.849l51,88.333l79.085,-136.98l1.138,0.657Zm57.565,43.998l-53.992,-31.172l-31.173,53.992l85.165,-22.82Zm-52.432,92.516l-54.729,-31.597l-24.38,42.227l5.284,9.152l73.825,-19.782Zm-147.714,-151.375l0,-57.145l-59.309,-15.892l12.297,45.895l47.012,27.142Zm-184.696,-106.634l124.432,71.84l-11.114,-41.477l-113.318,-30.363Z"/></g></g></g></svg>