<?xml version="1.0" encoding="UTF-8" standalone="no"?><!DOCTYPE svg PUBLIC "-//W3C//DTD SVG 1.1//EN" "http://www.w3.org/Graphics/SVG/1.1/DTD/svg11.dtd"><svg width="100%" height="100%" viewBox="0 0 1029 1182" version="1.1" xmlns="http://www.w3.org/2000/svg" xmlns:xlink="http://www.w3.org/1999/xlink" xml:space="preserve" xmlns:serif="http://www.serif.com/" style="fill-rule:evenodd;clip-rule:evenodd;stroke-linejoin:round;stroke-miterlimit:2;"><rect id="shiny_telemetry" x="0.555" y="0.434" width="1028" height="1181.1" style="fill:none;"/><clipPath id="_clip1"><rect x="0.555" y="0.434" width="1028" height="1181.1"/></clipPath><g clip-path="url(#_clip1)"><g><g><path id="path78" d="M514.393,0.434l-513.838,295.267l0,590.535l513.838,295.3l513.838,-295.3l-0,-590.535l-513.838,-295.267Z" style="fill:#4ab76c;fill-rule:nonzero;"/></g><ellipse cx="516.139" cy="814.5" rx="212.506" ry="19.238" style="fill-opacity:0.14;"/><path d="M365.799,813.391l-0,-11.912c-1.558,-29.862 -6.245,-60.009 -14.292,-90.042c-12.282,-45.837 -31.476,-87.992 -56.162,-125.643l10.169,-6.666c25.377,38.705 45.111,82.041 57.737,129.162c0.889,3.318 1.738,6.637 2.548,9.956l-0,-154.498l12.159,0l-0,237.416c0.132,2.576 0.242,5.15 0.329,7.722l-0.329,0.011l-0,4.494l-12.159,-0Zm20.164,-0c1.552,-30.999 6.382,-62.301 14.738,-93.482c12.626,-47.122 32.36,-90.457 57.737,-129.163l10.169,6.667c-24.686,37.651 -43.88,79.806 -56.162,125.643c-8.073,30.131 -12.765,60.377 -14.307,90.335l-12.175,-0Zm266.107,-0c0.364,-22.964 -1.821,-46.322 -6.777,-69.733c-2.828,-13.36 -6.474,-26.339 -10.875,-38.895l11.475,-4.022c4.571,13.042 8.358,26.522 11.296,40.399c5.135,24.256 7.405,48.457 7.041,72.251l-12.16,-0Zm27.929,-0c1.567,-21.913 0.826,-44.325 -2.435,-66.95c-7.647,-53.059 -28.259,-101.078 -58.168,-141.307l9.758,-7.254c31.077,41.801 52.499,91.694 60.445,146.827c3.344,23.206 4.136,46.195 2.589,68.684l-12.189,-0Zm18.735,-0l-0,-254.771l12.159,-0l0,167.019c12.158,-45.958 33.826,-87.24 62.438,-122.114l9.4,7.712c-31.796,38.754 -54.677,85.734 -64.85,138.367c-4.142,21.433 -5.98,42.78 -5.685,63.787l-13.462,-0Z"/><path d="M585.808,288.806l2.901,-20.022l-27.386,-5.538l-25.233,-23.734l-49.111,0.852l-25.072,20.247l-3.916,26.802l-0,40.183l11.292,15.476l-24.658,46.299l36.398,128.965l20.68,43.14l0.185,96.612c-0,-0 -2.915,62.526 -30.532,87.927c-27.617,25.402 -45.499,48.588 -59.711,54.275c-14.212,5.687 -71.284,17.366 -71.284,17.366l46.077,5.06l38.408,-5.06l46.51,-17.281l45.955,-49.878l5.65,-0.896l14.319,53.702l15.83,7.345l45.253,0.191l-8.35,-14.15l-11.343,-7.74l-18.475,-6.841l-10.907,-40.567l24.068,-45.17l16.443,-62.257l-16.061,-65.454l-0.858,-51.057l20.046,23.09l1.953,-48.152l-24.293,-43.467l-26.481,-46.922l-3.161,-33.301l-19.909,-46.25l4.639,-15.804l60.134,-17.991" style="fill:#dfa06c;"/><path d="M506.865,591.873l32.173,87.728l5.283,-56.619l-37.456,-54.869l-0,23.76Z" style="fill-opacity:0.13;"/><path d="M488.262,491.744l50.776,116.155l-64.347,-101.028l13.571,-15.127Z" style="fill:#fff;"/><path d="M535.928,441.342l-55.207,62.918l41.91,-77.891l13.297,14.973Z" style="fill:#d69763;"/><path d="M557.999,266.591l-94.416,53.356l123.805,-27.416l3.665,-20.895l-33.054,-5.045" style="fill-opacity:0.18;"/><path d="M502.459,693.518c-14.994,56.601 -41.052,108.62 -100.981,126.389l-37.091,4.95l39.419,-24.247c43.037,-18.343 73.338,-58.457 98.653,-107.092Z" style="fill:#fff;fill-opacity:0.41;"/><path d="M522.861,309.921l-31.841,66.644l-21.658,75.82l-24.737,-67.659l26.731,-37.951l-13.365,-22.46l64.87,-14.394Z" style="fill:#88664a;"/><path d="M457.984,371.257l11.378,81.128l-24.737,-66.882l13.359,-14.246Z" style="fill:#fff;"/><path d="M565.17,464.938l-20.274,-12.553l-1.037,209.747l-10.32,41.305l-10.678,36.004l15.134,59.341l14.956,13.563l45.412,0.376l-9.094,-17.877l-14.015,-6.454l-17.097,-8.905l-8.976,-44.164l22.362,-32.696l17.684,-68.764l-17.189,-65.848l-1.326,-65.273l-7.021,-21.469l1.479,-16.333Z" style="fill:#88664a;"/><path d="M570.197,532.806l-25.876,-27.127l2.431,-55.384l18.384,14.287l-3.437,34.298l11.183,16.42l-2.685,17.506Z" style="fill-opacity:0.36;"/><path d="M584.359,611.942l-45.321,81.915l31.312,-125.744l14.009,43.829Z" style="fill-opacity:0.09;"/><path d="M519.211,756.617c-41.948,58.518 -117.239,88.026 -190.851,68.302l2.45,-9.142l0,-1.297c0.116,-0 0.232,-0 0.348,-0.001l0.012,-0.046c0.057,0.016 0.113,0.031 0.17,0.046c91.894,-0.286 166.435,-74.876 166.641,-166.789l-0.008,-0l-0.101,-90.349l-22.609,-39.159l0.507,-0.293l-0.64,0.172l-35.254,-131.57l0.171,-0.046l23.223,-40.223l-10.654,-18.168l-0.053,0l0,-0.09l-0.029,-0.05l0.029,-0.017l0,-44.793l-0.121,-0c-0,-26.921 21.855,-48.777 48.776,-48.777l-0,0.006l37.937,0.263l0.06,-0.06l0.061,0.061l0.071,0l-0,0.071l22.967,22.967l25.701,7.832l0.01,-0.038l10.486,2.809l-7.091,26.465l0.04,0.147l-0.086,0.024l-0.036,0.134l-0.229,-0.062l-33.963,9.285l-0.109,0.407l-0.697,-0.187l-25.897,7.08l-3.509,13.098l21.509,37.597l0.067,0l0,0.118l0.007,0.012l-0.007,0.004l0,41.012l51.849,89.804l-0.124,0.072l-0,56.988l-10.856,0l0,-0.158l-0.318,0.184l-10.658,-18.46l-0,40.003l0.254,-0.068l16.778,62.615l-0.144,0.038l0.144,0.039l-18.65,69.601l-0.173,-0.046l-23.585,40.85l8.758,32.684l20.963,5.617l0.002,-0.002l0.004,0.004l0.122,0.033l-0.018,0.066l22.338,21.205l-0.106,0.111l0.45,0l0,10.855l-56.371,0l-0.03,0.05l-0.083,-0.05l-0.112,0l0,-0.068l-16.593,-10.053l-0.093,0.025l-0.026,-0.096l-13.021,-48.598Zm-145.648,63.542c58.021,0.322 112.329,-29.831 142.84,-78.865l0.09,0.056l21.599,-80.607l-0,-33.739l-29.344,-50.825l0.08,71.129l0.009,-0c0,83.52 -57.639,153.685 -135.274,172.851Zm111.627,-306.495l52.902,91.629l-0,-61.263l-49.848,-49.848l-5.652,9.789l2.598,9.693Zm-33.619,-125.468l15.406,57.497l19.14,-71.434l0.383,0.103l29.613,-51.291l2.203,-8.225l-52.452,14.34l9.5,16.2l0.692,0.4l-24.485,42.41Zm21.025,78.468l6.023,22.478l36.679,-63.529l-25.003,-25.003l-17.699,66.054Zm-9.298,-183.799l0.12,-0l0,35.736l46.878,-12.816l-46.756,-26.995c-0.152,1.339 -0.234,2.698 -0.242,4.075Zm37.805,-37.682c-15.489,0.046 -28.807,9.399 -34.648,22.756l9.099,5.253l27.987,-27.987l-2.438,-0.017l0,-0.005Zm33.646,0.238l-15.962,-0.111l-33.5,33.501l39.743,22.946l23.244,-6.354l7.704,-28.753l-21.229,-21.229Zm50.455,30.537l-18.936,-5.77l-5.868,21.9l22.101,-6.042l2.703,-10.088Zm-48.685,87.286l-15.462,-27.027l-25.206,43.659l-2.312,8.627l18.003,18.002l24.977,-43.261Zm1.136,43.023l0,-23.281l-18.166,31.466l41.08,41.08l-0,-9.564l-22.837,-39.555l-0.077,-0l0,-0.133l-0.006,-0.01l0.006,-0.003Zm51.724,89.602l-17.955,-31.099l-0,33.234l17.955,31.099l0,-33.234Zm-21.831,17.131l-7.105,-12.305l0.126,-0.073l-0,-29.738l-11.622,-11.622l0,160.968l18.601,-69.418l-0,-37.812Zm16.659,121.39l-13.908,-51.905l-30.386,113.404l9.141,34.116l17.789,-30.812l17.364,-64.803Zm-34.53,139.884l-15.384,-57.414l-7.248,27.053l7.014,26.176l15.618,4.185Zm27.604,18.635l-39.978,-10.713l4.286,15.995l10.499,6.361l37.458,0l-12.265,-11.643Zm-39.189,-264.23l-0,-80.272l-14.848,-14.848l-29.381,50.891l44.229,44.229Z"/></g></g></svg>