<?xml version="1.0" encoding="UTF-8" standalone="no"?><!DOCTYPE svg PUBLIC "-//W3C//DTD SVG 1.1//EN" "http://www.w3.org/Graphics/SVG/1.1/DTD/svg11.dtd"><svg width="100%" height="100%" viewBox="0 0 1029 1182" version="1.1" xmlns="http://www.w3.org/2000/svg" xmlns:xlink="http://www.w3.org/1999/xlink" xml:space="preserve" xmlns:serif="http://www.serif.com/" style="fill-rule:evenodd;clip-rule:evenodd;stroke-linejoin:round;stroke-miterlimit:2;"><rect id="shiny_info" x="0.069" y="0.348" width="1028" height="1181.1" style="fill:none;"/><clipPath id="_clip1"><rect x="0.069" y="0.348" width="1028" height="1181.1"/></clipPath><g clip-path="url(#_clip1)"><g><g><path id="path78" d="M516.12,-4.739l-516.051,296.539l0,593.079l516.051,296.572l516.051,-296.572l0,-593.079l-516.051,-296.539Z" style="fill:#87d7e3;fill-rule:nonzero;"/></g><path d="M510.342,658.587l-13.576,66.233l39.084,142.135l28.941,17.074l-72.801,2.557l22.655,-22.266l-36.769,-137.015l0.956,-71.292l31.51,-0l-0,2.574Z" style="fill:#f24013;"/><path d="M553.304,590.09l-38.659,68.497l-45.732,-2.574l-6.907,-24.576l96.672,-59.872l-5.374,18.525Z" style="fill:#fff;"/><path d="M547.977,603.728l-84.669,37.254l-3.963,-12.462l95.872,-49.835l-7.24,25.043" style="fill:#c9d1d7;"/><path d="M608.372,318.038l1.213,-27.261l-28.602,-21.101l-30.229,1.848l-16.391,50.832l43.281,70.95l-14.035,33.531l-96.709,29.283l-131.751,145.356l-54.053,36.095l-20.745,38.665l54.901,0.538l178.69,-64.552l63.281,-35.702l59.029,-48.751l20.761,-80.563l-41.262,-78.046l2.827,-22.595l51.798,47.831l-42.004,-76.358Z" style="fill:#fff;"/><path d="M639.541,378.034l-31.422,-58.137l-27.946,-15.212l9.901,32.814l49.467,40.535" style="fill:#f24013;"/><path d="M564.791,441.212l43.328,89.47l-31.84,-130.855l-11.488,41.385Z" style="fill:#c9d1d7;"/><path d="M552.485,507.563l-185.281,68.957l-23.818,21.119l211.831,-54.309l-2.732,-35.767Z" style="fill:#c9d1d7;"/><path d="M613.518,527.556l-278.277,72.499l-53.861,37.981l-21.029,42.622l71.175,-8.872c66.515,-16.952 131.574,-41.176 194.249,-77.301l87.743,-66.929Z" style="fill:#414141;"/><path d="M608.119,530.682c-110.036,63.192 -225.37,109.373 -343.65,146.092l74.824,-8.632l165.909,-58.676l94.772,-68.665l8.145,-10.119Z" style="fill-opacity:0.31;"/><path d="M613.866,318.012l49.471,85.685l-8.905,5.141l-0.716,0.717l-0.192,-0.192l-0.008,0.004l-0.017,-0.03l-52.384,-52.383l-2.207,8.238l45.86,79.431l-1.316,0.76l1.646,0.441l-22.566,84.215l-1.203,-0.322l0.538,0.605c-17.364,15.45 -35.526,29.939 -54.428,43.388l-47.271,87.273l-0.119,-0.064l-1.834,-0l-15.704,62.471l35.911,142.857l51.188,14.62l-2.958,10.358l-0,1.286l-100.426,-0l-0,-0.157l-0.13,0.08l-5.944,-9.658l28.588,-17.593l-35.307,-140.454l0.996,-0.251l-1.034,0.011l-0.622,-63.57l-4.07,-0l0,-0.039l-0.027,0.015l-13.076,-23.836c-60.748,26.489 -126.567,43.46 -196.115,49.12l-0.02,0.033l-9.75,-5.79l27.509,-46.323l-0.016,-0.025c17.305,-10.89 34.054,-22.703 50.185,-35.364l-0.001,-0.003l0.008,-0.003c52.715,-41.375 98.824,-91.803 136.135,-148.682l1.118,0.734l-0.355,-1.325l97.524,-26.132l7.868,-29.361l-39.695,-68.753l0.063,-0.037l-0.009,-0.002l15.927,-59.44l0.034,0.009l-0,-0.264l40.701,0l27.155,25.577l0,26.984Zm-71.672,5.622l17.625,30.528l20.693,-20.693l-7.27,-27.131l-22.875,-13.207l-8.173,30.503Zm44.916,-9.357l4.624,17.259l39.857,39.857l-27.223,-47.152l-17.258,-9.964Zm-32.365,-37.486l-1.339,5l29.049,16.771l0.029,-0.05l20.042,11.571l0,-14.158l-20.314,-19.134l-27.467,0Zm59.985,238.551l16.671,-62.214l-33.341,0l16.67,62.214Zm-67.749,72.328c-25.778,16.857 -52.822,31.833 -80.994,44.744l9.416,17.165l38.046,-0l33.532,-61.909Zm11.452,-151.722l-70.482,18.885l61.039,16.356l9.443,-35.241Zm17.512,-21.541l-16.001,59.717l34.477,9.238l-18.476,-68.955Zm-292.849,232.013l-16.478,27.748c17.618,-1.666 34.987,-4.073 52.083,-7.191l-35.605,-20.557Zm42.267,-31.837c-10.97,8.285 -22.208,16.189 -33.696,23.691l33.696,19.455l0,-43.146Zm144.09,-152.966c-32.581,48.605 -71.515,92.457 -115.451,129.959l194.437,-52.099l-0,-56.696l-78.986,-21.164Zm96.236,-97.288l13.809,23.918l19.626,-0l-12.394,-21.468l0.076,-0.044l-0.048,-0.013l5.098,-19.027l-4.766,-4.767l-21.401,21.401Zm64.347,77.459l-24.365,-42.201l-21.957,-0l11.308,42.201l35.014,0Zm-293.333,221.623c96.413,-20.626 183.702,-64.021 257.619,-124.488l-257.619,69.029l0,55.459Zm169.819,-2.492l-22.408,-0l0.566,57.897l7.288,0l14.554,-57.897Zm19.303,201.73l-33.306,-132.493l-6.029,0l32.839,130.638l6.496,1.855Zm23.062,18.5l-30.363,-8.672l-14.092,8.672l44.455,0Zm10.892,-344.71l45.591,-12.216l-7.56,-28.213l-38.031,-10.191l-0,50.62Z"/><ellipse cx="524.607" cy="891.317" rx="202.844" ry="19.943" style="fill-opacity:0.14;"/></g></g></svg>