<?xml version="1.0" encoding="UTF-8" standalone="no"?><!DOCTYPE svg PUBLIC "-//W3C//DTD SVG 1.1//EN" "http://www.w3.org/Graphics/SVG/1.1/DTD/svg11.dtd"><svg width="100%" height="100%" viewBox="0 0 1029 1182" version="1.1" xmlns="http://www.w3.org/2000/svg" xmlns:xlink="http://www.w3.org/1999/xlink" xml:space="preserve" xmlns:serif="http://www.serif.com/" style="fill-rule:evenodd;clip-rule:evenodd;stroke-linejoin:round;stroke-miterlimit:2;"><rect id="shniy_emptystate" x="0.25" y="0.554" width="1028" height="1181.1" style="fill:none;"/><clipPath id="_clip1"><rect x="0.25" y="0.554" width="1028" height="1181.1"/></clipPath><g clip-path="url(#_clip1)"><g><g><path id="path78" d="M514.087,0.554l-513.837,295.267l-0,590.535l513.837,295.3l513.838,-295.3l-0,-590.535l-513.838,-295.267Z" style="fill:#87d7e3;fill-rule:nonzero;"/></g><g><ellipse cx="532.357" cy="690.7" rx="367.039" ry="26.067" style="fill-opacity:0.11;"/><path d="M777.506,595.394l-194.783,0l-0,22.291l40.797,-0l0,39.316l34.762,36.557l-47.161,4.786l-37.246,-1.924l5.339,-43.742l-226.924,0l-11.995,22.3l23.115,119.421l70.273,43.783c0,-0 23.236,-44.152 36.15,-45.082c12.914,-0.929 48.843,-0.313 57.841,12.622c8.997,12.934 23.502,42.01 9.794,60.663c-13.707,18.652 -39.137,33.086 -69.432,28.522c-30.295,-4.563 -67.461,-19.407 -95.031,-31.578c-27.57,-12.171 -72.144,-52.481 -88.746,-80.331c-16.601,-27.851 -69.104,-195.65 30.338,-296.922c64.731,-65.923 131.606,-72.972 131.606,-72.972c44.837,-4.426 90.439,0.582 136.52,11.489l-0,-48.462c-0,0 44.161,1.715 105.882,53.389c63.886,53.487 81.898,115.874 78.934,117.506l9.967,48.368Z" style="fill:#87b324;"/><path d="M500.543,525.564l-104.581,-2.572l-25.784,24.594l50.668,101.688l84.745,5.866l-5.048,-129.576Z" style="fill:#91cc33;"/><path d="M583.316,424.593l-77.725,-16.216l-0,45.614l78.372,29.003l-0.647,-58.401Z" style="fill:#91cc33;"/><path d="M317.979,691.639l-14.215,-36.499l-40.548,58.086l74.26,17.936l-19.497,-39.523Z" style="fill:#91cc33;"/><path d="M498.771,414.483c-167.361,26.691 -243.978,126.234 -236.655,293.169c0,-0 -26.547,-96.875 20.801,-171.388c47.348,-74.514 92.585,-101.857 125.331,-112.162c32.747,-10.305 90.523,-9.619 90.523,-9.619" style="fill:#fff;"/><path d="M497.492,422.9c-0,164.696 -88.172,224.282 -186.586,224.282l194.685,2.446l-8.099,-226.728Z" style="fill-opacity:0.14;"/><path d="M710.704,444.431l10.185,9.485l-125.4,111.035l115.215,-120.52Z" style="fill:#fff;"/><path d="M769.868,545.003l-48.979,16.322l48.763,3.626l0.216,-19.948Z" style="fill-opacity:0.19;"/><path d="M677.63,413.5l-88.715,143.751l121.789,-114.335l-33.074,-29.416Z" style="fill-opacity:0.22;"/><path d="M514.653,831.441c-0,-0 15.162,61.008 -29.264,61.466c-53.895,0.555 -75.066,-9.277 -98.46,-25.027c-23.394,-15.751 -53.803,-130.357 -53.803,-130.357c15.533,44.637 52.049,78.673 99.452,98.982c0,0 10.307,-16.012 19.641,-25.749c9.334,-9.738 -13.813,27.253 -8.243,38.78c5.571,11.527 6.757,25.01 28.301,22.191c21.544,-2.819 25.639,-3.853 29.241,-11.348c3.602,-7.496 13.135,-28.938 13.135,-28.938Z" style="fill:#40872a;"/><path d="M437.884,841.713l-67.706,20.317l77.446,24.72l-9.74,-45.037Z" style="fill-opacity:0.22;"/><path d="M349.968,652.678l-45.472,0l10.492,35.792l33.767,70.871l4.699,-16.583l-10.935,-68.624l7.449,-21.456Z" style="fill:#40872a;"/><rect x="588.237" y="566.44" width="184.7" height="25.351" style="fill:#40872a;"/><path d="M580.993,574.383l-75.402,78.295l74.686,0l-6.758,44.238l83.276,0.957l-35.085,-45.195l1.09,-39.828l-34.563,0.575l-7.244,-39.042Z" style="fill:#40872a;"/><path d="M583.963,666.202l66.968,26.949l-74.565,-0l7.597,-26.949Z" style="fill-opacity:0.26;"/><path d="M493.263,899.754c-136.199,-0.483 -246.626,-111.206 -246.626,-247.517c0,-136.61 110.91,-247.519 247.519,-247.519c29.862,0 58.495,5.301 85.011,15.01l0,-52.377l9.592,0l0,3.484l0.532,-2.362c94.897,21.379 169.978,98.02 189.113,193.914l69.096,0c-0,0 17.574,-17.575 17.574,-17.575l-16.019,-16.019l-13.196,13.197l-6.783,-6.783l19.979,-19.979l29.585,29.584l-27.167,27.167l-71.353,0c0.949,5.995 1.681,12.059 2.187,18.183l1.4,-0l0,9.592c0,-0 -164.554,-0 -194.948,-0c0,-0 0,12.51 0,12.51l38.93,-0l0,44.451l36.839,36.839l-3.391,8.187l-87.584,0l-4.634,-6.032l8.043,-30.149c0,0 0,-8.667 0,-8.666l-219.534,-0l-9.596,15.653l19.908,118.975l68.059,41.974c3.997,-28.148 28.219,-49.824 57.464,-49.824c32.034,-0 58.042,26.007 58.042,58.041c-0,31.736 -25.526,57.557 -57.149,58.035l-0,0.007c-0.201,0 -0.401,-0 -0.602,-0.001c-0.097,0.001 -0.194,0.001 -0.291,0.001l-0,-0.001Zm85.904,-469.783c-22.428,-8.594 -46.484,-13.887 -71.573,-15.287l-0,34.745l71.573,24.972l0,-44.43Zm-83.965,-15.658c-0.349,-0.002 -0.697,-0.003 -1.046,-0.003c-42.429,0 -82.278,11.13 -116.786,30.627l0,87.207l117.832,-117.831Zm-127.424,36.345c-49.17,30.91 -86.256,79.309 -102.507,136.442l102.507,-47.044l0,-89.398Zm-105.653,148.753c-3.858,16.993 -5.895,34.673 -5.895,52.826c-0,17.112 1.81,33.805 5.25,49.897l36.398,-47.764l-0.17,-0.402l2.594,-3.916l-38.177,-50.641Zm3.594,119.515c11.037,37.82 31.221,71.756 57.992,99.248l0.836,-85.095l-58.828,-14.153Zm69.193,110.029c30.17,27.207 67.331,46.808 108.448,55.764l-0,-20.791c-4.212,-5.503 -7.02,-12.136 -7.886,-19.363l-71.857,-44.316l-28.705,28.706Zm118.04,57.646c13.189,2.307 26.751,3.526 40.588,3.561c26.613,-0.15 48.172,-21.801 48.172,-48.449c0,-26.74 -21.709,-48.449 -48.449,-48.449c-26.576,-0 -48.183,21.444 -48.447,47.959c0.746,15.985 13.96,28.735 30.129,28.735c16.647,-0 30.163,-13.515 30.163,-30.163c-0,-9.146 -7.426,-16.572 -16.573,-16.572c-9.146,0 -16.572,7.426 -16.572,16.572l-9.592,0c0,-14.44 11.724,-26.164 26.164,-26.164c14.441,-0 26.165,11.724 26.165,26.164c-0,21.942 -17.814,39.755 -39.755,39.755c-8.13,0 -15.693,-2.445 -21.993,-6.64l-0,13.691Zm135.807,-508.409l0,44.414l1.485,1.484c0.255,0.108 0.51,0.217 0.765,0.325l-0.131,0.309l64.843,64.844l47.548,-47.548c-31.066,-31.027 -70.542,-53.604 -114.51,-63.828Zm179.856,184.195c-1.814,-8.724 -4.111,-17.279 -6.86,-25.636l-44.85,25.636l51.71,0Zm-10.097,-34.834c-11.009,-29.331 -27.66,-55.988 -48.596,-78.621l-113.454,113.455l101.107,0l60.943,-34.834Zm14.163,62.609c-0.527,-6.128 -1.289,-12.191 -2.278,-18.183l-70.28,0l-0.72,0.412l-0.235,-0.412l-110.409,0l0,18.183l183.922,-0Zm-426.505,66.732l-36.811,-0l15.041,35.511l21.77,-35.511Zm-17.173,46.365l23.543,55.585l-12.355,-73.835l-11.188,18.25Zm27.803,90.236l-22.733,-53.67l-0.758,77.161l23.491,-23.491Zm-29.486,-69.615l-25.133,-59.338c-13.275,17.42 -34.319,45.035 -34.319,45.035l59.452,14.303Zm-17.078,-76.579l107.159,0l-47.71,-97.569l-98.817,45.351l39.368,52.218Zm117.497,0l70.263,0l-0,-117.72l-104.503,-0l-15.436,15.436l49.95,102.15l-0.274,0.134Zm83.814,0l71.299,0l29.477,-25.445l-33.162,-0l0,-42.168l-67.614,67.613Zm75.001,10.173l0,9.344l-6.757,25.331l69.761,-0l-31.461,-31.461c0,0 0,-1.214 0,-3.214l-31.543,0Zm31.543,-9.592c0,-6.064 0,-13.105 0,-18.334l-21.238,18.334l21.238,-0Zm-38.93,-81.76l0,-81.561l-71.573,-24.972l-0,178.106l71.573,-71.573Zm9.592,-129.95l0,120.358l60.179,-60.179l-60.179,-60.179Zm-90.757,83.816l-0,-94.909l-94.91,94.909l94.91,0Z"/><path d="M568.726,424.102l-63.135,222.922l72.061,0l5.664,-216.468l-14.59,-6.454Z" style="fill-opacity:0.14;"/></g></g></g></svg>