<?xml version="1.0" encoding="UTF-8" standalone="no"?><!DOCTYPE svg PUBLIC "-//W3C//DTD SVG 1.1//EN" "http://www.w3.org/Graphics/SVG/1.1/DTD/svg11.dtd"><svg width="100%" height="100%" viewBox="0 0 1029 1182" version="1.1" xmlns="http://www.w3.org/2000/svg" xmlns:xlink="http://www.w3.org/1999/xlink" xml:space="preserve" xmlns:serif="http://www.serif.com/" style="fill-rule:evenodd;clip-rule:evenodd;stroke-linejoin:round;stroke-miterlimit:2;"><rect id="shiny_benchmark" x="0.25" y="0.381" width="1028" height="1181.1" style="fill:none;"/><clipPath id="_clip1"><rect x="0.25" y="0.381" width="1028" height="1181.1"/></clipPath><g clip-path="url(#_clip1)"><g><g><path id="path78" d="M514.412,0.381l-513.838,295.267l0,590.535l513.838,295.3l513.838,-295.3l-0,-590.535l-513.838,-295.267Z" style="fill:#f24d54;fill-rule:nonzero;"/></g><ellipse cx="532.684" cy="837.087" rx="299.275" ry="17.742" style="fill-opacity:0.14;"/><path d="M856.476,647.291l-7.594,5.207l7.695,13.75l-4.108,26.242l-11.363,-11l-76.766,3.926l-48.491,13.869l-180.103,18.188l-218.393,-101.575l-181.205,-28.363l357.263,-41.069l-42.486,-22.058l-4.167,-81.497l-95.83,-44.068l-33.575,-133.912l13.793,4.852l234.7,107.455l-20.687,-65.046l210.682,93.539l78.968,40.487l8.428,18.381l-2.056,25.133l-17.539,25.877l-33.041,16.833l-74.752,27.322l60.58,31.033l38.672,24.225l41.375,32.269Z" style="fill:#8f382c;"/><path d="M698.751,559.995l-247.64,-41.959l-6.768,-73.259l256.883,113.526" style="fill-opacity:0.26;"/><path d="M694.479,559.995l-250.136,-82.029l2.358,-33.189l247.778,115.218Z" style="fill-opacity:0.25;"/><path d="M453.56,502.869l133.692,74.028l-131.587,-58.195l-2.105,-15.833" style="fill:#fff;"/><path d="M762.042,590.005l-52.646,104.777l80.519,-93.806l-27.873,-10.971Z" style="fill-opacity:0.16;"/><path d="M553.917,334.664l208.125,81.298l-210.704,-98.528l2.579,17.23Z" style="fill:#fff;"/><path d="M326.494,287.044l231.942,87.175l-237.828,-113.571l5.886,26.396Z" style="fill:#fff;"/><path d="M160.171,585.536l132.657,0l-9.511,-14.422l-129.597,14.422" style="fill:#fff;"/><path d="M848.165,652.321l-70.214,27.841l58.471,-1.571l18.261,11.607l2.609,-22.4l-9.127,-15.477Z" style="fill:#fff;"/><path d="M670.013,427.139l160.963,75.247l-11.849,16.312l-50.923,19.369l-55.519,21.928l-28.995,-9.762c-0,-0 10.654,-28.262 9.285,-42.697c-1.369,-14.435 -6.034,-50.969 -6.034,-50.969l-16.928,-29.428Z" style="fill-opacity:0.16;"/><path d="M673.872,429.231c38.173,38.221 45.915,82.018 36.778,128.908l-27.857,-8.398l13.935,-62.759l-24.523,-50.131l1.667,-7.62Z" style="fill-opacity:0.3;"/><path d="M722.042,451.225l89.936,67.646l-123.018,-49.649l-22.065,-43.701l13.672,-1.042l41.475,26.746Z" style="fill-opacity:0.25;"/><path d="M695.042,522.44l51.471,24.026l-33.941,13.529l-30.259,-11.66l12.729,-25.895" style="fill-opacity:0.27;"/><path d="M316.664,565.299l37.846,68.014l36.191,15.952l-55.352,-86.007l-18.685,2.041" style="fill-opacity:0.2;"/><path d="M792.824,598.247l-78.825,102.037l142.578,-54.558l-63.753,-47.479Z" style="fill:#cd6445;"/><path d="M802.847,608.045l-75.517,82.153l65.216,-87.091l10.301,4.938Z" style="fill:#fff;"/><path d="M330.58,307.433l357.557,158.969l6.578,53.526l-351.537,-167.48l-12.598,-45.015Z" style="fill:#cd6445;"/><path d="M505.883,546.466l140.305,61.953l5.658,50.222l-145.478,41.643l-108.349,-50.812l-54.841,-85.353l162.705,-17.653" style="fill:#cd6445;"/><path d="M646.971,617.389l-303.793,-48.508l162.739,-22.415l138.15,63.895l2.904,7.028Z" style="fill-opacity:0.18;"/><path d="M368.59,559.995l118.775,66.784l-135.736,-60.74l16.961,-6.044Z" style="fill:#fff;"/><path d="M383.717,622.166l192.781,89.615l-41.903,5.495l-133.297,-62.514l-17.581,-32.596Z" style="fill-opacity:0.35;"/><path d="M315.371,620.965l-194.212,-32.727l1.77,-10.503l1.243,0.209l-0.048,-0.505l361.318,-34.378l-39.723,-18.157l-0.095,0.009l-0.006,-0.055l-0.188,-0.086l0.149,-0.325l-7.741,-81.359l-89.45,-40.887l-0.086,0.023l-0.019,-0.072l-0.104,-0.047l0.057,-0.127l-37.096,-138.445l0.085,-0.023l-0.008,-0.004l4.429,-9.687l241.741,110.499l-21.162,-54.675l9.933,-3.845l0.104,0.269l0.055,-0.119l289.057,132.127l0.201,-0.156c0.098,0.127 0.195,0.254 0.293,0.381l0.163,0.075l-0.04,0.087c6.392,8.436 10.595,18.692 11.67,29.993c2.605,27.373 -13.969,52.183 -38.705,61.103l0.021,0.055l-86.068,32.068l94.95,43.401l-0.054,0.12l41.919,34.635l0.28,-0.104l0.181,0.485l0.027,0.023l-0.013,0.016l3.524,9.457l-7.92,2.951c2.567,5.725 4.257,11.958 4.884,18.546c0.953,10.018 -0.663,19.691 -4.306,28.37l-9.821,-4.123c0.046,-0.11 0.092,-0.221 0.138,-0.332l-0.139,0.099l-8.971,-12.606l-82.59,7.858l-0.024,-0.244l-38.669,14.408l-0.018,-0.048l-68.414,6.51l-0.007,0.015l-0.027,-0.012l-110.414,10.505l-0.322,0.706l-37.469,-17.127l-0.889,0.238l-0.196,-0.734l-100.41,-45.897l-0.071,0.051l-0.087,-0.123l-82.61,-37.76Zm-152.551,-36.508l145.448,24.509l-25.557,-35.916l-119.891,11.407Zm341.997,-32.54l-148.671,14.146l128.627,58.794l98.955,-36.87l-78.911,-36.07Zm-171.245,16.293l-38.617,3.675l29.567,41.551l61.108,27.932l-52.058,-73.158Zm122.067,-50.483l41.442,18.943l-47.46,-82.204l6.018,63.261Zm-98.366,-123.177l323.69,147.958c6.662,-15.312 9.651,-32.473 7.959,-50.259c-3.495,-36.731 -26.097,-67.075 -57.034,-82.138l0.011,-0.022l-68.5,-31.311l-0.361,0.14l-0.143,-0.371l-239.208,-109.341l8.899,33.212l285.739,130.61l-4.428,9.687l-277.735,-126.951l8.89,33.177l184.431,84.303l-4.428,9.687l-176.427,-80.644l8.645,32.263Zm333.379,152.387l18.557,8.482l29.593,-11.026l-41.251,-18.856c-1.589,7.408 -3.913,14.571 -6.899,21.4Zm4.454,13.747l-146,-66.736l52.16,90.345l51.04,23.329l-4.428,9.688l-50.45,-23.06l-98.955,36.87l87.38,39.941l173.139,-46.393l-63.935,-63.935l0.049,-0.049Zm-162.709,-74.374l-70.768,-32.347l52.161,90.344l70.767,32.348l-52.16,-90.345Zm19.305,-166.189l19.562,50.54l154.857,70.785l-4.428,9.687l-48.45,-22.146c8.36,9.826 15.085,21.138 19.709,33.548l118.642,54.231c16.739,-8.902 27.37,-27.265 25.464,-47.302c-0.801,-8.414 -3.716,-16.12 -8.171,-22.643l-277.185,-126.7Zm201.216,219.012l45.169,-16.829l-101.034,-46.183c1.149,4.912 1.982,9.958 2.473,15.119c0.755,7.942 0.665,15.771 -0.196,23.399l53.588,24.494Zm58.792,74.85l-16.125,-7.371l-17.909,21.676l30.686,30.686l39.837,-14.842l-36.489,-30.149Zm-26.154,-11.955l-62.885,-28.744l47.439,47.439l15.446,-18.695Zm64.498,79.737c0.319,-3.116 0.338,-6.309 0.03,-9.545c-0.537,-5.641 -2.024,-10.964 -4.289,-15.826l-53.142,19.8l50.133,-4.77l0.014,0.147l7.254,10.194Zm-122.658,7.377l69.991,-26.078l-26.526,-26.527l-43.465,52.605Zm-77.724,11.09l59.415,-5.653l48.295,-58.452l-156.32,41.886l48.61,22.219Zm-111.96,10.652l90.752,-8.634l-43.555,-19.909l-69.122,18.521l21.925,10.022Zm-132.707,-60.66l95.573,43.686l69.122,-18.521l-217.549,-99.441l52.854,74.276Z"/></g></g></svg>