<?xml version="1.0" encoding="UTF-8" standalone="no"?><!DOCTYPE svg PUBLIC "-//W3C//DTD SVG 1.1//EN" "http://www.w3.org/Graphics/SVG/1.1/DTD/svg11.dtd"><svg width="100%" height="100%" viewBox="0 0 1029 1182" version="1.1" xmlns="http://www.w3.org/2000/svg" xmlns:xlink="http://www.w3.org/1999/xlink" xml:space="preserve" xmlns:serif="http://www.serif.com/" style="fill-rule:evenodd;clip-rule:evenodd;stroke-linejoin:round;stroke-miterlimit:2;"><rect id="shiny_blueproitn" x="0.069" y="0.619" width="1028" height="1181.1" style="fill:none;"/><clipPath id="_clip1"><rect x="0.069" y="0.619" width="1028" height="1181.1"/></clipPath><g clip-path="url(#_clip1)"><g><g><g><path id="path78" d="M514.232,0.619l-513.838,295.267l0,590.535l513.838,295.3l513.837,-295.3l0,-590.535l-513.837,-295.267Z" style="fill:#87d7e3;fill-rule:nonzero;"/></g><g><path d="M595.546,314.2c0,-0 -112.586,229.51 -302.716,384.084c-106.056,86.223 -128.148,99.558 -130.269,97.325l74.025,6.106l34.85,-33.677l80.379,-44.607l85.209,-50.503l33.977,25.19l148.16,-6.679c0,-0 73.406,-31.234 85.057,-94.12c11.651,-62.887 6.377,-85.967 -1.383,-122.234c-7.76,-36.267 -15.016,-37.236 -15.016,-37.236l17.014,-14.012l67.207,-36.34l-20.547,-10.836l-29.227,-6.367l-53.377,-55.963l-73.42,0" style="fill:#2e96f4;"/><path d="M506.877,577.062l-153.589,138.279l117.174,-61.442l36.415,-76.837Z" style="fill-opacity:0.16;"/><path d="M544.734,411.747l8.302,22.325c-62.839,82.496 -132.766,157.41 -208.591,226.013c71.091,-76.769 137.864,-159.534 200.289,-248.338Z" style="fill:#fff;"/><path d="M632.937,466.268l-159.802,185.788l157.826,-94.099l1.976,-91.689Z" style="fill-opacity:0.24;"/><path d="M632.937,543.309l-149.377,95.935l149.377,-80.082l0,-15.853" style="fill:#fff;"/><path d="M701.224,511.088c-36.24,137.022 -105.509,177.578 -188.821,177.118l110.599,7.784c0,0 62.354,-48.616 73.281,-71.676c11.96,-25.242 17.118,-100.547 11.424,-100.447l-6.483,-12.779Z" style="fill-opacity:0.17;"/><path d="M626.989,566.645l-125.107,126.323l-34.582,3.613l-29.868,-23.459l189.557,-106.477Z" style="fill:#386b72;"/><path d="M618.539,572.395l-145.404,118.111l-35.37,-17.453l180.774,-100.658Z" style="fill-opacity:0.16;"/><ellipse cx="529.389" cy="792.766" rx="301.838" ry="20.657" style="fill-opacity:0.14;"/><path d="M489.636,698.98l101.428,57.358l-25.786,19.424l74.725,2.219l-39.849,-19.201l-66.716,-64.039l-43.802,4.239" style="fill:#d4c2b0;"/><path d="M552.801,717.568l-46.728,-5.531l-17.394,-14.444l49.903,-3.864l14.219,23.839Z" style="fill-opacity:0.27;"/><path d="M327.689,694.943l-144.104,91.065l130.853,-103.307l13.251,12.242" style="fill:#fff;"/><path d="M333.866,701.024l20.656,18.56l-82.956,47.787l-39.393,34.344l101.693,-100.691Z" style="fill:#386b72;"/><path d="M344.445,710.598l-79.098,58.5l-28.761,28.862l95.231,-95.565l12.628,8.203Z" style="fill-opacity:0.11;"/><path d="M556.825,424.624l44.506,-69.749l6.794,25.746l-51.3,44.003Z" style="fill:#fff;"/><path d="M721.825,367.975l-22.362,18.727l13.196,12.9l-9.606,19.842l62.387,-35.751l-43.615,-15.718Z" style="fill:#d4c2b0;"/><path d="M713.609,400.411l51.831,-19.79l3.762,4.372l-64.484,36.645l8.891,-21.227" style="fill:#d19559;fill-opacity:0.56;"/><path d="M594.458,314.2c55.124,23.306 72.582,61.448 106.766,110.986l-13.909,13.671l-73.972,-107.135l-18.885,-17.522Z" style="fill-opacity:0.25;"/><path d="M149.865,794.603l-0.406,-0.667c189.075,-115.211 340.784,-283.46 438.479,-483.467l1.485,0.726l-0,-1.409l3.34,-0l0.086,-0.117c0.053,0.039 0.106,0.078 0.159,0.117l78.696,-0l-0,1.092l0.722,-0.722l54.184,54.184l47.098,12.62l-0.258,0.966l4.687,8.118l-78.638,45.401l-4.959,8.634c13.848,34.069 21.559,71.181 21.559,109.908c-0,3.199 -0.051,6.386 -0.151,9.56l0.151,0c-0,63.269 -38.84,117.538 -93.958,140.24l-0.589,-1.43l-0,0.95l-78.157,-0l54.514,54.513l60.588,18.252l-2.961,9.828l-0.116,-0.034l0,0.148l-98.275,0l-0,-10.264l0.516,-0l-0.573,-0.994l23.447,-13.537l-100.166,-57.831l0.047,-0.081l-9.057,-0l-0,-1.182l-0.577,0.999l-35.811,-20.675l-75.41,43.538l-2.644,2.644l-0.708,-0.708l-90.276,52.121l-0.213,-0.368l-28.326,28.326l0,0.866l-87.661,-0l0,-10.265l0.132,-0Zm441.607,-465.214c-12.526,24.828 -25.883,49.157 -40.038,72.946l5.737,21.412l46.992,-46.992l-12.691,-47.366Zm-47.396,85.145c-22.593,36.959 -47.131,72.575 -73.492,106.693l0,65.943l44.742,-25.831l34.043,-127.051l-5.293,-19.754Zm-83.756,119.787c-12.592,15.832 -25.581,31.329 -38.956,46.475l0,34.792l38.956,-22.491l-0,-58.776Zm-49.22,57.947c-21.253,23.441 -43.443,46.013 -66.522,67.652l66.522,-38.406l-0,-29.246Zm-96.357,94.673c-19.933,17.434 -40.473,34.197 -61.592,50.252l-13.373,49.909l87.563,-87.563l-12.598,-12.598Zm-74.887,60.209c-17.698,13.057 -35.79,25.624 -54.259,37.678l47.579,-12.749l6.68,-24.929Zm427.948,-427.1l-48.111,0l50.667,13.577l4.034,-6.987l-6.59,-6.59Zm46.487,46.487l-32.383,-32.383l-10.856,18.804l28.078,28.74l15.161,-15.161Zm46.595,17.614l-39.191,-10.502l-15.391,15.391l10.976,11.235l-0.051,0.049l0.108,0.062l-7.654,13.327l51.203,-29.562Zm-71.425,44.162l15.128,-26.34l-41.875,-42.861l-11.63,6.714c15.166,19.089 28.117,40.063 38.377,62.487Zm13.45,152.516l-0.037,-0.004c1.088,-10.131 1.647,-20.42 1.647,-30.838c-0,-13.026 -0.909,-25.861 -2.661,-38.447l-63.417,-36.614l0,81.301l55.868,55.868c4.02,-9.91 6.937,-20.383 8.6,-31.266Zm-3.191,-82.378c-12.386,-65.86 -47.903,-124.117 -96.802,-166.003l34.905,130.267l61.897,35.736Zm-81.903,-168.277c9.434,8.623 18.343,17.85 26.658,27.616l17.902,-10.336l2.67,-4.624l-47.23,-12.656Zm0.01,358.868c13.662,-5.639 26.239,-13.378 37.329,-22.813l-0.778,-79.551l-18.571,-18.57l-32.404,120.934l14.424,0Zm47.501,-32.375c9.799,-10.172 18.076,-21.82 24.462,-34.577l-25.046,-25.046l0.584,59.623Zm-136.449,42.64l-28.121,-0l66.535,38.414l-38.414,-38.414Zm-55.031,-10.265l23.695,0l110.538,-110.538l-162.845,94.019l28.612,16.519Zm38.211,0l80.717,0l29.545,-110.262l-110.262,110.262Zm109.781,82.708l-30.191,-9.095l-15.753,9.095l45.944,-0Zm-266.785,-59.013l110.359,-63.716l40.714,-70.519l-180.878,104.43l29.805,29.805Zm128.138,-73.981l144.986,-83.708l-0,-88.667l-20.948,-78.178l-47.656,47.656l-35.246,131.537l0.047,0.028l-0.101,0.175l-0.017,0.064l-0.017,-0.004l-41.048,71.097Zm-190.59,110.037l53.249,-30.743l-11.253,-11.253l-41.996,41.996Zm-103.827,45.81l38.365,-0l2.968,-11.075l-41.333,11.075Z"/></g></g></g></g></svg>