<?xml version="1.0" encoding="UTF-8" standalone="no"?><!DOCTYPE svg PUBLIC "-//W3C//DTD SVG 1.1//EN" "http://www.w3.org/Graphics/SVG/1.1/DTD/svg11.dtd"><svg width="100%" height="100%" viewBox="0 0 1029 1182" version="1.1" xmlns="http://www.w3.org/2000/svg" xmlns:xlink="http://www.w3.org/1999/xlink" xml:space="preserve" xmlns:serif="http://www.serif.com/" style="fill-rule:evenodd;clip-rule:evenodd;stroke-linejoin:round;stroke-miterlimit:2;"><rect id="shiny_semantic" x="0.555" y="0.158" width="1028" height="1181.1" style="fill:none;"/><clipPath id="_clip1"><rect x="0.555" y="0.158" width="1028" height="1181.1"/></clipPath><g clip-path="url(#_clip1)"><g><g><path id="path78" d="M514.718,0.158l-513.838,295.268l0,590.535l513.838,295.3l513.837,-295.3l0,-590.535l-513.837,-295.268Z" style="fill:#f4b830;fill-rule:nonzero;"/></g><ellipse cx="514.718" cy="892.412" rx="263.001" ry="19.343" style="fill-opacity:0.14;"/><g><path d="M853.42,634.441l48.931,-13.798l-8.285,-8.168l-47.646,-27.543l-41.873,-68.931l-108.321,-89.283l-69.839,-20.868l-60.136,8.062l-55.62,28.704l-41.846,33.028l-65.639,-65.526l-157.94,-40.882l-114.058,0.459l46.424,75.491l132.352,80.15l107.692,1.001l0.181,15.145l23.255,101.917l-23.205,29.132l-2.926,129.82l30.76,-20.925l-0.069,-100.337l37.578,-24.121l70.803,-73.12l108.649,0.043l-4.416,17.962l43.995,21.786l2.736,9.165l-10.386,19.148l-52.424,0.288l21.766,27.832l60.002,-1.787l20.683,-29.039l8.847,5.717l0.91,30.883l12.323,26.182l12.311,5.36l10.191,-33.598l5.33,-16.632l18.772,-3.366l21.268,-17.332l18.87,-12.019Z" style="fill:#e47e28;"/><path d="M132.276,374.188l101.707,15.252l7.563,-16.693l-109.27,1.441Z" style="fill:#fff;"/><path d="M896.172,620.535c0,0 -43.694,-17.836 -43.694,-17.836l-0.477,-11.812l44.171,29.648Z" style="fill:#fff;"/><path d="M654.206,525.985l-49.372,-114.166l-17.291,2.305l66.663,111.861Z" style="fill:#fff;"/><path d="M731.93,609.307l-67.781,-32.357l-2.802,22.387l55.637,29.11l14.946,-19.14Z" style="fill:#fff;"/><path d="M770.606,684.03l-12.774,-66.475l-6.096,66.782l18.87,-0.307Z" style="fill:#fff;"/><path d="M754.017,624.164l-42.12,0.57l-18.852,29.824l-45.504,0.14l-5.05,8.512l31.454,17.236l52.125,-1.687l27.947,-54.595Z" style="fill:#b53711;"/><path d="M727.69,680.446l-33.067,-23.448l16.764,-32.834l42.63,-0l-0,20.592l-26.327,35.69Z" style="fill-opacity:0.16;"/><path d="M310.278,385.572l13.781,69.735l-89.427,-20.444l-6.083,-42.132l24.402,-22.063l57.327,14.904" style="fill:#e36321;"/><path d="M843.049,585.794l-26.408,15.237l-65.55,-0.997l63.033,-72.172l28.925,57.932Z" style="fill:#e36321;"/><path d="M614.033,469.93l-63,111.882l107.11,3.982l2.127,-44.051l-46.237,-71.813Z" style="fill:#e36321;"/><path d="M654.908,568.451l-96.547,0l-6.06,14.68l105.066,-2.8l-2.459,-11.88Z" style="fill:#fff;"/><rect x="546.303" y="574.513" width="113.966" height="8.2" style="fill-opacity:0.11;"/><path d="M716.879,618.756l-4.59,8.079l-57.843,-33.94l4.59,-8.079l57.843,33.94Z" style="fill-opacity:0.11;"/><path d="M801.796,520.791l9.665,9.823l-72.042,73.218l-9.665,-9.823l72.042,-73.218Z" style="fill-opacity:0.11;"/><path d="M552.563,418.999l107.707,155.311l-0,11.484l-0,-41.549l-74.35,-131.258l-33.357,6.012Z" style="fill-opacity:0.14;"/><path d="M444.156,779.422l0.34,-97.089l52.741,-40.872l-34.355,-149.48l-5.18,-16.546l-75.979,-21.088l-41.97,38.578l-17.344,-37.765l-83.256,-16.629l-11.449,-36.86l-49.897,44.728l131.189,80.585l105.698,-2.848l7.233,46.675l18.769,73.498l-27.175,31.051l0.684,131.594l29.951,-27.532" style="fill:#b53711;"/><path d="M436.626,506.582l-104.347,-2.001l-141.643,-67.561l-10.069,11.827l133.196,77.67l107.504,1.478l15.359,-21.413Z" style="fill-opacity:0.28;"/><path d="M449.997,461.45l-57.031,64.535l29.599,-0l46.122,-48.271l-18.69,-16.264Z" style="fill-opacity:0.18;"/><path d="M169.412,448.337l-0.639,0.375l-42.327,-74.509l-6.495,-11.336l129.385,0l-0,0.251l0.057,-0.219l154.695,42.127l-0.116,0.438l0.383,-0.388l63.838,64.879l14.016,-14.245l-0.087,-0.097c0.646,-0.603 1.296,-1.202 1.951,-1.797l0.347,-0.352l0.019,0.02c35.242,-31.88 81.669,-51.259 132.514,-51.259c45.338,0 87.162,15.409 120.677,41.348l-0.025,0.034l83.79,85.157l-0.705,0.716l0.873,-0.512l29.64,52.175l55.876,32.786l-0.379,0.667l2.784,10.561l-62.98,17.151l-23.799,24.187l-0.655,-0.666l0.233,0.882l-25.58,6.966l-11.587,43.946l-0.743,-0.202l-7.661,7.786l-25.525,-25.942l0.515,-0.524l-5.051,-8.892l-0.627,0l-0,-31.701l-14.498,25.521l-0.982,-0.576l0,1.117l-69.759,0l0,-1.465l-0.636,0.647l-27.322,-27.768l7.608,-7.733l0,-0.764l49.606,-0l10.047,-16.758l-45.178,-26.509l0.693,-1.219l-0.993,-0l-0,-12.074l-97.444,0l-71.798,72.97l-0.038,-0.039l0.039,0.068l-34.71,20.367l-0,98.664l-0.608,-0l0.278,0.282l-32.893,33.429l-4.845,-4.924l-3.532,-0l0,-54.125l-0.028,-0.017l0.028,-0.05l0,-85.477l1.392,-0l-0.508,-0.514l26.062,-26.638l-29.286,-111.081l0.688,-0.187l0.214,-0.125l-0.814,-0.827l1.467,-1.491l-100.131,0l-0,-1.194l-0.489,0.86l-138.695,-81.383l0.453,-0.798Zm-29.275,-73.658l36.574,64.382l63.348,-64.382l-99.922,-0Zm258.233,41.018l-83.494,-22.737l24.206,91.81l63.626,-64.664l-4.338,-4.409Zm-96.456,-26.267l-47.268,-12.872l-20.323,20.654l8.671,32.889l75.029,20.432l-16.109,-61.103Zm150.808,81.506l-41.796,-42.478l-24.131,24.525l65.927,17.953Zm39.336,-8.532l-20.326,20.658l41.753,0l77.235,-45.319l-11.298,-19.888c-33.108,6.836 -63.065,22.535 -87.364,44.549Zm233.932,-12.882c-30.75,-22.337 -68.395,-35.485 -109.037,-35.485c-8.58,-0 -17.026,0.586 -25.303,1.721l61.332,107.963l73.008,-74.199Zm81.17,81.48l-72.453,-73.636l-75.709,76.945l7.093,12.485l-0.123,0.072l0.264,-0l-0,49.996l34.554,20.275l21.62,0l8.282,-8.417l-26.459,-26.892l8.218,-8.352l26.459,26.891l68.254,-69.367Zm32.362,53.202l-24.99,-43.99l-56.178,57.094l58.835,0l22.333,-13.104Zm51.279,33.813l-37.285,-21.878l0,32.031l37.285,-10.153Zm-74.247,38.025l25.34,-25.753l0,-33.838l-21.253,12.47l-0.337,-0.593l0,0.792l-5.178,-0l-13.439,50.971l14.867,-4.049Zm-40.807,51.48l6.851,-25.983l-20.551,12.059l13.7,13.924Zm-18.101,-24.981l30.865,-18.111l14.583,-55.31l-56.362,-0l-8.044,8.435l18.958,0.339l-0,64.647Zm-11.622,-48.017l-0,-5.573l-25.108,0l21.205,12.443l3.903,-6.87Zm-21.516,37.875l11.802,-20.776l-26.154,-15.347l-13.442,22.422l-0.845,-0.524l-0,0.764l-43.344,0l13.244,13.461l58.739,-0Zm-69.898,-93.643l-0,-28.547l-40.487,-71.269l-56.704,99.816l97.191,-0Zm-169.742,68.585l7.8,-7.927l-36.935,-140.091l-34.838,35.406l63.973,112.612Zm17.289,-17.571l42.59,-43.286l-73.768,-74.972l31.178,118.258Zm-60.644,46.685l-0.338,-0.596l22.312,-13.092l-22.822,-6.215l-19.984,20.425l0,2.181l18.356,18.654l-0,-21.357l2.476,-0Zm-2.476,101.196l-0,-49.605l-18.356,32.311l0,35.949l18.356,-18.655Zm-18.356,-81.789l0,40.872l14.72,-25.912l-14.72,-14.96Zm8.448,-123.016l19.41,73.622l26.515,7.221l-45.925,-80.843Zm-107.332,-53.805l98.099,-0l34.777,-35.345l-77.368,-21.069l-55.508,56.414Zm-135.28,-73.242l57.475,33.724l-19.159,-72.666l-38.316,38.942Zm71.709,42.076l49.323,28.942l22.043,-22.403l-8.095,-30.707l-75.03,-20.432l11.759,44.6Zm258.593,5.981l0,1.018l-45.775,-0l76.462,77.71l59.907,-105.456l-10.882,-19.156l-79.333,46.551l-0.379,-0.667Z"/></g></g></g></svg>