<?xml version="1.0" encoding="UTF-8" standalone="no"?><!DOCTYPE svg PUBLIC "-//W3C//DTD SVG 1.1//EN" "http://www.w3.org/Graphics/SVG/1.1/DTD/svg11.dtd"><svg width="100%" height="100%" viewBox="0 0 1029 1182" version="1.1" xmlns="http://www.w3.org/2000/svg" xmlns:xlink="http://www.w3.org/1999/xlink" xml:space="preserve" xmlns:serif="http://www.serif.com/" style="fill-rule:evenodd;clip-rule:evenodd;stroke-miterlimit:1.5;"><rect id="shiny_gosling" x="0.764" y="0.402" width="1028" height="1181.1" style="fill:none;"/><clipPath id="_clip1"><rect x="0.764" y="0.402" width="1028" height="1181.1"/></clipPath><g clip-path="url(#_clip1)"><rect x="0.764" y="945.283" width="1182.39" height="236.22" style="fill:none;stroke:#00d8ff;stroke-opacity:0;stroke-width:1.46px;"/><rect x="0.764" y="1.276" width="1182.39" height="236.22" style="fill:none;stroke:#00d8ff;stroke-opacity:0;stroke-width:1.46px;"/><g><g><path id="path78" d="M516.805,0.402l-511.959,294.188l-0,588.376l511.959,294.22l511.959,-294.22l-0,-588.376l-511.959,-294.188Z" style="fill:#f4b830;fill-rule:nonzero;"/></g><g><ellipse cx="529.423" cy="808.633" rx="224.334" ry="19.828" style="fill-opacity:0.14;"/><path d="M601.441,299.87l45.706,47.238l-1.05,-21.516l-6.619,-17.356l10.114,-45.834c0,-0 -14.297,-23.438 -31.661,-25.959c-17.365,-2.521 -58.535,-2.432 -58.535,-2.432l-34.035,37.127l-2.536,111.035l19.63,67.56l21.297,47.172l-124.025,75.741l-182.932,45.748l82.511,55.721l46.847,23.244l79.306,83.42l54.918,30.52l57.504,-2.001l-41.153,-28.519l34.892,-36.425c0,0 47.864,-15.589 70.46,-42.125c22.596,-26.535 57.681,-60.666 65.334,-87.453c7.653,-26.786 2.192,-45.63 2.192,-45.63l-99.956,-159.679l-57.883,-95.465l20.034,-15.002l29.64,0.87Z" style="fill:#fff;"/><path d="M417.988,608.067l-151.477,14.651l169.894,-46.425l-18.417,31.774" style="fill:#fde5a2;"/><path d="M648.199,323.509l-24.113,-43.629l-27.252,18.101l49.665,45.861l1.7,-20.333Z" style="fill:#ff8d31;"/><path d="M561.036,336.61l-5.931,131.579l-21.241,-40.477l27.172,-91.102Z" style="fill:#1c1500;fill-opacity:0.21;"/><path d="M596.834,546.778l-14.185,73.856l38.459,-66.548l-24.274,-7.308Z" style="fill:#fde5a2;"/><path d="M596.834,547.888l-209.978,149.659l-28.643,-17.365l231.701,-130.854l6.92,-1.44Z" style="fill-opacity:0.17;"/><path d="M556.972,505.359l-15.769,67.626l48.711,-28.921l-23.546,-45.057l-9.396,6.352Z" style="fill-opacity:0.14;"/><path d="M556.972,313.054l-18.747,-55.195l-12.791,15.404l31.538,39.791Z" style="fill:#170800;fill-opacity:0.12;"/><path d="M627.572,549.328l-113.657,204.754l-51.893,19.449l51.822,37.768l70.059,0l-44.463,-30.52l33.218,-40.043c-0,0 88.261,-30.972 115.163,-90.248c26.902,-59.275 29.985,-76.569 29.985,-76.569l-90.234,-24.591Z" style="fill:#d5b7a7;"/><path d="M533.864,782.298l-22.054,21.791l9.677,7.789l56.054,0.007l-43.677,-29.587Z" style="fill:#8b8573;"/><path d="M533.864,784.441l7.339,26.88l-27.055,-5.279l19.716,-21.601" style="fill-opacity:0.15;"/><path d="M658.887,268.02l-3.076,1.776l-10.489,39.146l8.911,15.433l-0.034,0.02l1.418,23.841l0.081,0.081l-7.911,7.911l-53.602,-53.602l-21.527,-0l-13.435,13.435l161.617,256.94l-0.109,0.069l0.018,0.003c-12.836,80.442 -69.495,146.348 -144.697,172.431l-34.057,34.056l45.592,26.323l-0.018,0.031l0.088,0l0,11.188l-68.854,0l0,-0.075l-52.948,-30.569l-0.028,0.028l-0.107,-0.106l-0.049,-0.029l0.007,-0.013l-85.956,-85.956l-130.94,-75.598l5.594,-9.689l0.039,0.022l-0.016,-0.058l181.969,-48.758l124.156,-71.682l-26.445,-45.803l0.33,-0.191l-17.684,-65.998l-0.23,0l0,-113.644l-0.104,-0.11l40.847,-38.831l49.952,0l-0,0.141c23.81,1.183 43.939,16.45 52.219,37.634l-0.522,0.203Zm-128.191,2.69l22.417,35.639l12.691,-12.691l-12.028,-44.888l-23.08,21.94Zm32.642,-29.48l13.453,50.208l19.16,-0l19.774,-11.416l-0,-37.334c-3.691,-0.909 -7.549,-1.391 -11.519,-1.391l0,-0.067l-40.868,-0Zm63.575,5.766l-0,26.566l17.701,-10.22c-4.411,-6.833 -10.509,-12.479 -17.701,-16.346Zm-60.795,257.312l-122.597,70.782l-41.751,72.315l185.223,-106.939l-20.875,-36.158Zm-38.435,-124.011l5.609,20.93l19.801,-73.898l-25.41,-40.396l0,93.364Zm93.622,-90.578l-15.345,8.859l37.741,37.741l-0.518,-8.706l-9.588,-16.608l-0.381,-0.102l0.102,-0.38l-12.011,-20.804Zm-353.261,333.267l88.01,50.813l26.338,-15.206l45.247,-78.371l-159.595,42.764Zm265.761,164.764l-15.862,15.862l3.988,2.302l43.335,0l-31.461,-18.164Zm168.661,-210.741l-59.396,-15.916l-0,75.312l59.396,-59.396Zm-157.25,-131.279l52.975,91.756l104.747,28.066l-141.723,-225.31l-22.132,82.599l6.133,22.889Zm96.893,-168.022l-11.115,6.417l6.417,11.115l4.698,-17.532Zm-10.227,280.388l-0.854,-0.229l-39.749,68.847l40.603,23.442l-0,-92.06Zm-264.64,122.162l19.43,11.218l-0.012,0.021l73.817,73.818l44.791,-12.002l70.728,-122.504l-61.553,-35.537l-147.201,84.986Zm298.355,-10.636c18.883,-23.166 32.879,-50.47 40.41,-80.332l-62.937,62.937l-0,4.389l22.527,13.006Zm-69.948,-121.235l-70.018,40.425l55.959,32.308l38.25,-66.251l-24.191,-6.482Zm-87.737,249.434l45.944,-45.944l-84.244,22.573l2.978,2.977l35.322,20.394Zm58.268,-60.829l-0.005,-0.014c35.756,-11.145 67.385,-31.686 91.99,-58.728l-25.656,-14.813l-0.627,0l-0,-0.362l-46.197,-26.672l-65.134,112.815l45.629,-12.226Z"/><path d="M640.396,558.436l-79.954,188.153l-45.755,7.273l111.269,-204.534l14.44,9.108Z" style="fill-opacity:0.11;"/></g></g></g></svg>