<?xml version="1.0" encoding="UTF-8" standalone="no"?><!DOCTYPE svg PUBLIC "-//W3C//DTD SVG 1.1//EN" "http://www.w3.org/Graphics/SVG/1.1/DTD/svg11.dtd"><svg width="100%" height="100%" viewBox="0 0 1029 1182" version="1.1" xmlns="http://www.w3.org/2000/svg" xmlns:xlink="http://www.w3.org/1999/xlink" xml:space="preserve" xmlns:serif="http://www.serif.com/" style="fill-rule:evenodd;clip-rule:evenodd;stroke-linejoin:round;stroke-miterlimit:2;"><rect id="shiny_react" x="0.069" y="0.126" width="1028" height="1181.1" style="fill:none;"/><clipPath id="_clip1"><rect x="0.069" y="0.126" width="1028" height="1181.1"/></clipPath><g clip-path="url(#_clip1)"><g><g><path id="path78" d="M513.907,0.126l-513.838,295.268l0,590.535l513.838,295.3l513.838,-295.3l-0,-590.535l-513.838,-295.268Z" style="fill:#87d7e3;fill-rule:nonzero;"/></g><g><path d="M490.829,755.964c0,0 110.084,-66.268 146.091,-168.958c36.008,-102.691 20.854,-212.788 -28.626,-275.575c-49.479,-62.788 -45.772,-48.474 -45.772,-48.474l-88.317,0l-77.621,55.26l-32.375,28.196l59.584,101.638l-27.582,92.545l-57.439,-10.757l-41.82,42.61l-1.102,109.172l74.749,72.198l120.23,2.145Z" style="fill:#eb4786;"/><path d="M577.639,514.341l1.078,165.991l-15.714,20.063l2.289,-212.842l12.347,26.788Z" style="fill-opacity:0.17;"/><path d="M303.334,683.175l8.583,11.232l58.669,-28.15l-67.252,16.918" style="fill:#fff;"/><path d="M380.469,336.076l65.073,106.023l77.462,294.97l17.186,-11.574l-77.298,-299.619l-62.478,-107.276l-19.945,17.476Z" style="fill-opacity:0.15;"/><path d="M300.105,625.821l87.287,-0l-16.369,32.762l-76.551,23.292l5.633,-56.054" style="fill:#bd3977;"/><path d="M486.594,626.97l-187.652,-51.468l-3.592,104.213l191.244,-52.745Z" style="fill-opacity:0.28;"/><path d="M313.636,697.963c0,-0 114.013,0.273 114.013,0.273l-30.066,33.559l-24.565,24.808l-59.382,-58.64Z" style="fill:#bd3977;"/><path d="M447.952,557.699l-133.493,-1.373l-19.987,18.903l105.332,25.721l60.937,-17.274l-12.789,-25.977Z" style="fill:#bd3977;"/><path d="M300.865,573.547l9.985,-11.827l94.32,34.815l-104.305,-22.988Z" style="fill:#fff;"/><path d="M568.059,279.137l78.94,283.206l-35.109,79.161l-49.398,-175.889l5.567,-186.478Z" style="fill:#591a58;fill-opacity:0.32;"/><path d="M562.492,263.655l0,437.155l-19.98,19.144l-81.57,-291.022l-61.138,-111.205l54.369,-45.377l47.059,-8.695l61.26,-0Z" style="fill:#fff;fill-opacity:0.22;"/><circle cx="456.058" cy="723.393" r="33.381" style="fill-opacity:0.14;"/><path d="M473.695,449.049l22.063,34.238l47.478,236.667l-75.929,-266.216l6.388,-4.689Z" style="fill:#fff;"/><path d="M399.804,319.784l14.852,-14.809l39.066,95.124l-53.918,-80.315Z" style="fill:#fff;"/><circle cx="481.309" cy="712.243" r="41.571" style="fill:#a93360;"/><circle cx="507.581" cy="403.669" r="51.146" style="fill:#ef6fa0;"/><path d="M585.362,674.243c-62.691,71.168 -130.747,116.855 -199.517,159.151c0,0 75.93,-19.107 92.753,-28.522c16.822,-9.415 85.769,-65.023 85.769,-65.023l3.692,-20.168l29.573,-8.561l10.662,-24.425l-22.932,-12.452" style="fill:#2a3e5f;"/><path d="M596.032,683.006c-47.596,54.447 -103.491,100.371 -165.545,139.969l-23.335,3.631l10.713,-17.29l83.548,-51.59l64.208,-63.142l18.311,-17.36l12.1,5.782Z" style="fill-opacity:0.23;"/><path d="M291.428,572.185l-0.714,-0.714l50.337,-50.338l0.78,0.78l0.275,-1.024l52.788,14.145l24.258,-90.531l-58.315,-101.004l0.668,-0.386l-0.7,-0.853l101.901,-83.515l0.13,0.159l-0.006,-0.528l105.167,-1.222l-0,0.011l0.038,-0.04c58.738,55.995 95.49,134.779 95.49,222.257c-0,60.883 -17.741,117.656 -48.331,165.426l0.453,0.331c-2.125,2.914 -4.276,5.809 -6.451,8.683c-5.03,7.279 -10.366,14.33 -15.988,21.135l12.133,3.251l48.269,-48.269l6.647,-24.809l10.269,2.752l-7.327,27.345l-0.748,-0.2l0.553,0.553l-24.13,24.13l67.219,-38.809l21.801,-37.761l9.207,5.316l-23.095,40.001l-0.912,-0.526l0.521,0.903l-101.767,58.755l-7.306,27.265l-1.045,-0.28l0.28,1.044l-35.832,9.601l-0,16.827l-1.056,-0l0.765,0.711c-48.205,51.83 -114.077,87.008 -187.986,95.915l-1.272,-10.555l0.027,-0.004c38.226,-18.055 74.235,-40.043 107.506,-65.439l-114.549,0l0,-1.233l-0.909,0.91l-79.126,-79.126l0.232,-0.232l-0.149,-0l-0,-110.808Zm93.255,179.858l50.607,0l-32.084,-18.523l-18.523,18.523Zm20.48,-214.258l85.866,23.008l-36.164,-134.969l-57.519,-99.626l-23.23,19.039l56.545,97.939l-0.335,0.193l0.127,0.034l-25.29,94.382Zm-90.946,25.217l-6.767,6.767l93.518,25.058l52.323,-14.02l-10.28,-17.805l-128.794,0Zm243.097,175.229l-0,-24.369c-41.693,42.364 -89.537,78.656 -142.077,107.423c55.085,-13.886 104.066,-43.195 142.077,-83.054Zm-124.349,-34.47l-21.976,21.976l32.245,18.617c-6.999,-8.421 -11.21,-19.24 -11.21,-31.036c-0,-3.27 0.323,-6.466 0.941,-9.557Zm93.832,24.752c2.467,-2.254 4.915,-4.53 7.344,-6.825l-0.422,-1.576l-4.506,-7.804c0.007,0.336 0.011,0.673 0.011,1.01c-0,5.306 -0.852,10.414 -2.427,15.195Zm-21.003,-56.768l-14.938,-25.874l-19.789,19.788c3.09,-0.617 6.286,-0.941 9.557,-0.941c9.211,0 17.827,2.568 25.17,7.027Zm-25.17,4.881c-20.251,0 -36.693,16.441 -36.693,36.692c0,20.251 16.442,36.692 36.693,36.692c20.251,0 36.692,-16.441 36.692,-36.692c-0,-20.251 -16.441,-36.692 -36.692,-36.692Zm62.263,36.628c4.845,-4.767 9.609,-9.616 14.29,-14.544l-0,-95.676l-81.775,-141.638l67.485,251.858Zm102.672,-168.069c4.8,-21.168 7.335,-43.192 7.335,-65.803c-0,-77.599 -29.964,-148.108 -78.819,-200.977l71.484,266.78Zm-44.822,142.796l-15.721,-4.212c-5.558,6.458 -11.25,12.799 -17.071,19.017l-0,11.427l27.756,-7.437l5.036,-18.795Zm-293.757,-4.156l8.54,8.54l96.902,0l-43.527,-25.13l-61.915,16.59Zm19.171,19.172l46.272,46.272l46.272,-46.272l-92.544,-0Zm231.026,-326.647l-0,-108.32l-90.134,1.047l-61.364,50.292l45.618,79.013c2.857,-28.626 27.043,-51.011 56.417,-51.011c21.227,-0 39.746,11.69 49.463,28.979Zm-72.743,79.428l72.743,125.994l-0,-120.8l-0.472,-1.762l0.472,-0.126l-0,-27.294c-9.717,17.289 -28.236,28.979 -49.463,28.979c-8.295,0 -16.176,-1.785 -23.28,-4.991Zm23.28,-96.499c-24.721,-0 -44.792,20.07 -44.792,44.791c0,24.721 20.071,44.791 44.792,44.791c24.721,0 44.791,-20.07 44.791,-44.791c0,-24.721 -20.07,-44.791 -44.791,-44.791Zm-76.793,331.491l54.432,-54.431l-0.155,-0.267l-101.781,27.272l47.504,27.426Zm-24.056,-83.357l-26.393,45.714l98.5,-26.393l-72.107,-19.321Zm51.929,-17.075l-37.289,9.992l50.938,13.648l-13.649,-23.64Zm109.014,-89.691l-0,186.575c11.473,-12.726 22.407,-25.946 32.767,-39.625c1.605,-2.327 3.178,-4.678 4.718,-7.052l-37.485,-139.898Zm-265.749,78.683l-0,40.729l85.229,-0l8.946,-15.495l-94.175,-25.234Zm-0,51.36l-0,43.448l63.891,-17.12l15.2,-26.328l-79.091,0Zm192.148,-58.04l-39.453,-10.571l68.334,118.358l-28.881,-107.787Zm118.749,55.418c11.299,-19.457 20.45,-40.313 27.127,-62.242l-72.275,-269.735l-0,163.481l45.148,168.496Zm-268.312,-95.493l-19.796,19.796l93.676,0l-73.88,-19.796Z"/><path d="M568.031,287.291l-5.539,46.498l71.048,261.318l13.292,-29.678l-78.801,-278.138Z" style="fill-opacity:0.1;"/></g><ellipse cx="526.627" cy="905.755" rx="251.196" ry="18.475" style="fill-opacity:0.14;"/></g></g></svg>