<?xml version="1.0" encoding="UTF-8" standalone="no"?><!DOCTYPE svg PUBLIC "-//W3C//DTD SVG 1.1//EN" "http://www.w3.org/Graphics/SVG/1.1/DTD/svg11.dtd"><svg width="100%" height="100%" viewBox="0 0 1029 1182" version="1.1" xmlns="http://www.w3.org/2000/svg" xmlns:xlink="http://www.w3.org/1999/xlink" xml:space="preserve" xmlns:serif="http://www.serif.com/" style="fill-rule:evenodd;clip-rule:evenodd;stroke-linejoin:round;stroke-miterlimit:2;"><rect id="tapyr" x="0.975" y="0.619" width="1028" height="1181" style="fill:none;"/><clipPath id="_clip1"><rect x="0.975" y="0.619" width="1028" height="1181"/></clipPath><g clip-path="url(#_clip1)"><g><g><path id="path78" d="M514.915,0.619l-513.837,295.267l-0,590.535l513.837,295.3l513.838,-295.3l-0,-590.535l-513.838,-295.267Z" style="fill:#455b7a;fill-rule:nonzero;"/><path d="M216.961,491.081l-40.136,30.982l29.473,3.94l14.214,-26.16l-3.551,-8.762Z" style="fill:#515667;"/><path d="M617.194,392.137l-255.692,0c0,0 -75.11,22.969 -87.995,36.857c-12.884,13.887 -63.322,95.686 -63.322,95.686l185.39,101.762l100.571,0.243l52.464,-16.184l68.584,-218.364Z" style="fill:#e1f0fe;"/><path d="M583.379,392.137c-24.849,110.652 -82.741,207.79 -189.532,234.548c43.99,3.148 108.284,1.666 154.763,-20.112l56.514,-214.436l-21.745,0Z" style="fill-opacity:0.18;"/><path d="M596.338,392.137c-27.645,111.297 -55.217,217.678 -162.958,234.548l61.961,0l53.269,-19.59l56.514,-214.958l-8.786,0Z" style="fill-opacity:0.18;"/><path d="M395.575,626.231l-188.571,-101.551l-11.699,62.885l0.258,122.664l11.441,59.465l47.104,3.355l-21.918,-36.544l-6.082,-38.844l17.234,-52.354l24.365,83.094l25.344,43.188l43.491,-0.305l-35.962,-41.741l26.068,-101.68l68.927,-1.632Z" style="fill:#515667;"/><path d="M214.87,537.148l27.782,106.645l-15.971,54.851l7.253,45.849l25.548,23.057l-46.084,7.265l-18.669,-60.499l-1.595,-121.336l16.012,-63.304l5.724,7.472Z" style="fill-opacity:0.27;"/><path d="M377.431,627.935l-54.229,-0l7.557,-34.955l51.048,28.19l-4.376,6.765Z" style="fill-opacity:0.51;"/><path d="M607.904,392.137l-59.957,216.536l35.935,125.344l19.929,32.409l32.679,-2.629l2.907,-4.391l-24.608,-25.517l7.56,-78.883l48.722,27.645l22.479,100.341l50.745,0l-24.179,-23.586l-2.993,-57.154l-34.623,-67.969l72.157,-18.194l90.173,49.375l24.366,37.497l-1.545,43.084l29.591,-3.899c0,-0 2.734,-134.361 -12.21,-154.638c-14.944,-20.276 -36.792,-67.975 -36.792,-67.975l25.729,-29.399l-27.383,-15.594l-10.028,29.075c-0,0 -88.962,-59.926 -103.361,-68.278c-14.399,-8.352 -125.293,-43.2 -125.293,-43.2Z" style="fill:#515667;"/><path d="M847.999,476.882l27.117,12.637l-25.089,26.792l-11.2,-12.226l9.172,-27.203Z" style="fill:#fff;"/><path d="M733.371,439.575l-120.561,68.294l-16.268,-31.348l136.829,-36.946Z" style="fill-opacity:0.09;"/><path d="M588.221,483.444l-19.057,53.704l136.55,152.954l-117.493,-206.658Z" style="fill-opacity:0.17;"/><path d="M556.619,612.653l68.956,40.904l-9.632,82.966l22.86,19.121l-5.698,10.982l-29.754,0.924c0,-0 -17.993,-37.095 -19.473,-41.979c-1.481,-4.885 -27.259,-112.918 -27.259,-112.918Z" style="fill-opacity:0.48;"/><path d="M748.499,446.362l-47.824,181.573l53.14,-12.45l-5.316,-169.123Z" style="fill-opacity:0.29;"/><ellipse cx="532.46" cy="774.815" rx="355.635" ry="23.587" style="fill-opacity:0.23;"/><ellipse cx="712.013" cy="772.156" rx="20.772" ry="9.331" style="fill:#fff;"/><path d="M620.015,739.428l15.426,23.397l-38.565,-0l-0,-22.981l23.139,-0.416Z" style="fill:#fff;"/><path d="M304.205,742.258l22.586,28.072l-38.565,-0l-11.691,-27.832l27.67,-0.24Z" style="fill:#fff;"/><path d="M207.879,722.731l49.431,49.233l-38.565,0l-17.483,-36.269l6.617,-12.964Z" style="fill:#fff;"/><path d="M200.297,532.303l-35.308,3.187l-4.02,-10.49l66.889,-50.004c31.134,-47.748 81.485,-87.543 151.464,-88.698c1.04,-0.017 2.084,-0.026 3.132,-0.026l0,0.026l227.1,0.001l2.133,0.27l124.015,41.144l0.775,0.321c38.254,19.148 71.703,41.984 98.629,69.83l6.354,-24.03l8.346,-3.683l29.362,15.329l1.426,9.303l-25.839,25.84c42.021,54.805 61.592,126.847 48.769,223.76l-0.671,5.072l-39.416,0l0,-48.106l-22.116,-31.915l-80.391,-48.082l-72.825,17.533l38.339,67.331c-0,0 -0,53.053 -0,53.053l26.829,18.137l-3.27,10.675l-59.264,-0l-25.287,-104.311c0,0 -36.619,-21.636 -36.619,-21.636c-0,0 -7.164,69.758 -7.164,69.758l25.909,27.231l-3.849,9.85l-41.578,2.721l-17.141,-29.368l-0.469,0.015l-0.027,-0.866l-8.69,-14.888l-28.479,-110.222l-52.644,15.491l-166.75,-0l-23.824,95.628l37.236,39.667l-4.257,9.834l-48.293,-0l-29.203,-41.987l-18.06,-73.849l-10.053,45.248l7.232,36.314l23.539,22.597l1.239,0l-0,1.19l0.455,0.437l-0.455,0.474l-0,9.576l-54.329,-0l-19.37,-67.064l-0,-122.849l0.065,-0.008c0.51,-16.371 3.976,-35.257 10.424,-54.761Zm10.762,4.168c-5.807,17.886 -8.962,35.19 -9.494,50.255l23.057,96.777l10.661,-47.981l-24.224,-99.051Zm399.082,193.381l7.756,-75.531l-57.482,-34.046l26.309,101.824l4.866,8.338l18.551,-0.585Zm-282.216,-322.808c-54.112,19.009 -90.608,65.003 -109.963,110.906l33.919,19.51c10.477,-53.006 34.747,-97.169 76.044,-130.416Zm-104.759,320.726l-21.682,-91.004l-0,70.189l21.682,20.815Zm-15.738,1.077l10.531,36.461l27.448,0l-37.979,-36.461Zm390.858,13.061l10.309,17.663c-0,-0 21.926,-1.435 21.926,-1.435l-15.988,-16.805l0.002,0.065l-16.249,0.512Zm240.654,-221.984c-21.483,-25.83 -48.36,-47.518 -79.4,-66.01l2.201,143.209l77.199,-77.199Zm4.943,-12.538c1.185,1.35 2.356,2.711 3.512,4.083l19.319,-19.319l-15.834,-8.266l-6.266,23.695l-0.731,-0.193Zm-448.19,112.793l7.727,0l-20.027,-68.34l-70.324,20.816l82.624,47.524Zm-133.099,-76.557l36.498,20.994l81.018,-23.982l-38.026,-129.765c-44.312,32.831 -69.46,77.946 -79.49,132.753Zm155.84,76.557l74.585,0l52.205,-15.361l53.478,-199.423l-151.624,90.299l-28.644,124.485Zm260.684,70.403l15.555,64.166l20.094,-0l0,-43.052l-35.649,-21.114Zm26.042,1.854l-116.484,-204.575l-31.374,116.999l147.858,87.576Zm-7.656,73.988l2.419,9.981l31.02,-0l-14.764,-9.981l-18.675,0Zm-103.457,-298.589l78.762,-22.891l-67.351,-19.663l-11.411,42.554Zm-343.601,82.27l-27.967,-16.086l38.772,158.536l-10.805,-142.45Zm463.807,-117.206l-101.782,-33.768l-3.988,14.87l83.617,24.412l1.447,0.504l20.706,-6.018Zm-35.042,190.365l48.214,-182.034l-130.301,37.87l82.087,144.164Zm-304.479,-203.713l68.044,65.115l109.336,-65.115l-177.38,0Zm4.59,-21.575c-8.065,0.141 -15.852,0.83 -23.36,2.013c-0,-0 0.124,1.32 -0.127,1.479l6.651,6.365l209.233,0.042l16.622,-9.9l-209.019,0.001Zm462.828,135.252l-77.027,77.026l76.958,46.029l0.069,-123.055Zm-551.355,199.555l34.731,-139.493l-62.836,-36.142l12.093,175.981l16.012,-0.346Zm40.065,-112.604l41.414,0l-36.223,-20.835l-5.191,20.835Zm104.654,-126.3l-79.127,-75.722l54.083,184.562l25.044,-108.84Zm-222.116,6.506l-28.926,21.623l20.192,-1.823c2.575,-6.598 5.486,-13.223 8.734,-19.8Zm67.826,245.874l13.773,19.049l28.621,0l-18.04,-19.049l-24.354,-0Zm572.381,-79.598l21.508,31.038c0,-0 0,40.08 0,40.08l17.479,-0c10.155,-83.715 -5.14,-147.89 -38.77,-197.987l-0.071,126.786l-0.146,0.083Zm-105.846,-219.506c-2.835,-1.566 -5.701,-3.109 -8.598,-4.628c-9.738,36.764 -48.676,183.775 -48.676,183.775l59.806,-14.398l-2.532,-164.749Z"/><path d="M875.116,698.644l-11.689,-8.291l-30.366,-30.113l-79.246,-47.894l-0,-165.984l5.368,7.069c-0,0 14.691,97.116 57.628,133.745c40.767,34.779 58.305,111.468 58.305,111.468Z" style="fill-opacity:0.39;"/><path d="M371.217,395.723l-24.409,24.409l-24.41,-24.409l24.41,-24.41l24.409,24.41Z" style="fill:#fcc836;"/><path d="M346.808,426.025l-30.302,-30.302l30.302,-30.302l30.302,30.302l-30.302,30.302Zm18.517,-30.302c-0,-0 -18.517,-18.517 -18.517,-18.517c-0,-0 -18.517,18.517 -18.517,18.517c-0,-0 18.517,18.517 18.517,18.517l18.517,-18.517Z"/><path d="M341.926,663.659l-24.409,24.41l-24.41,-24.41l24.41,-24.409l24.409,24.409Z" style="fill:#fcc836;"/><path d="M317.517,693.961l-30.302,-30.302l30.302,-30.302l30.302,30.302l-30.302,30.302Zm18.517,-30.302c-0,0 -18.517,-18.517 -18.517,-18.517c-0,0 -18.517,18.517 -18.517,18.517c-0,0 18.517,18.517 18.517,18.517l18.517,-18.517Z"/><path d="M630.95,391.453l-24.409,24.409l-24.41,-24.409l24.41,-24.41l24.409,24.41Z" style="fill:#fcc836;"/><path d="M606.541,421.755l-30.302,-30.302l30.302,-30.303l30.302,30.303l-30.302,30.302Zm18.517,-30.302c-0,-0 -18.517,-18.517 -18.517,-18.517c-0,-0 -18.517,18.517 -18.517,18.517c0,-0 18.517,18.516 18.517,18.516l18.517,-18.516Z"/><path d="M480.93,325.826l-24.409,24.409l-24.41,-24.409l24.41,-24.41l24.409,24.41Z" style="fill:#3978ae;"/><path d="M456.521,356.128l-30.302,-30.302l30.302,-30.302l30.302,30.302l-30.302,30.302Zm18.517,-30.302c-0,-0 -18.517,-18.517 -18.517,-18.517c-0,-0 -18.517,18.517 -18.517,18.517c-0,-0 18.517,18.517 18.517,18.517l18.517,-18.517Z"/><path d="M521.104,678.772l-24.41,24.409l-24.409,-24.409l24.409,-24.41l24.41,24.41Z" style="fill:#3978ae;"/><path d="M496.694,709.074l-30.302,-30.302l30.302,-30.302l30.302,30.302l-30.302,30.302Zm18.517,-30.302c0,-0 -18.517,-18.517 -18.517,-18.517c0,-0 -18.517,18.517 -18.517,18.517c0,-0 18.517,18.517 18.517,18.517l18.517,-18.517Z"/><path d="M737.075,524.708l-24.409,24.409l-24.41,-24.409l24.41,-24.41l24.409,24.41Z" style="fill:#3978ae;"/><path d="M712.666,555.01l-30.302,-30.302l30.302,-30.302l30.302,30.302l-30.302,30.302Zm18.517,-30.302c-0,-0 -18.517,-18.517 -18.517,-18.517c-0,-0 -18.517,18.517 -18.517,18.517c-0,-0 18.517,18.517 18.517,18.517l18.517,-18.517Z"/></g></g></g></svg>